<?xml version="1.0" encoding="UTF-8"?> <svg xmlns="http://www.w3.org/2000/svg" width="70" height="70" viewBox="0 0 70 70" fill="none"> <path d="M2.25231e-07 33.5358C1.19033e-07 17.7234 6.59338e-08 9.8172 4.91634 4.91628C9.83268 0.0153519 17.7235 -5.94345e-05 33.5359 -5.93359e-05L36.4487 -5.93177e-05C52.2611 -5.92191e-05 60.1057 -5.91702e-05 65.0837 4.91628C70.0617 9.83261 70 17.7234 70 33.5358L70 36.4486C70 52.2611 70 60.1673 65.0837 65.0836C60.1674 69.9999 52.2611 69.9999 36.4487 69.9999L33.5359 69.9999C17.7235 69.9999 9.81727 69.9999 4.91634 65.0836C0.0154118 60.1673 3.50991e-07 52.2611 2.44793e-07 36.4486L2.25231e-07 33.5358Z" fill="#0077FF"></path> <path fill-rule="evenodd" clip-rule="evenodd" d="M16.1428 32.9756C16.1428 23.5088 24.9606 16.1429 35.4285 16.1429C45.8965 16.1429 54.7142 23.5088 54.7142 32.9756C54.7142 42.4425 45.8965 49.8084 35.4285 49.8084C33.8726 49.8084 32.358 49.6476 30.906 49.3433C28.6071 50.7906 25.4399 51.9745 21.4807 52.9363C20.9515 53.0649 20.393 52.9856 19.9205 52.7147C18.6406 51.981 18.7035 50.5688 19.3388 49.4542C20.1985 47.9321 21.0107 46.3655 21.6098 44.7202C18.2527 41.7125 16.1428 37.5772 16.1428 32.9756ZM35.4285 18.7143C26.0142 18.7143 18.7143 25.2697 18.7143 32.9756C18.7143 37.0032 20.6778 40.6808 23.9144 43.307C24.3204 43.6364 24.4865 44.1789 24.3345 44.6792C23.855 46.257 23.0258 48.0964 21.8759 50.1844C25.4726 49.2399 28.134 48.1348 29.9312 46.9083C30.2299 46.7045 30.6005 46.6359 30.9523 46.7192C32.3752 47.0563 33.8761 47.237 35.4285 47.237C44.8428 47.237 52.1428 40.6816 52.1428 32.9756C52.1428 25.2697 44.8428 18.7143 35.4285 18.7143Z" fill="white"></path> </svg> 