<svg fill="none" height="118" viewBox="0 0 195 118" width="195" xmlns="http://www.w3.org/2000/svg" xmlns:xlink="http://www.w3.org/1999/xlink"><linearGradient id="a" gradientUnits="userSpaceOnUse" x1="232.852" x2="-5.14941" y1="-92.04" y2="59.4543"><stop offset="0" stop-color="#02ffe2"/><stop offset=".669874" stop-color="#ffe603"/><stop offset="1" stop-color="#fb517a"/></linearGradient><linearGradient id="b" gradientUnits="userSpaceOnUse" x1="152.387" x2="181.51" y1="28.3201" y2="215.848"><stop offset="0" stop-color="#02ff95"/><stop offset=".309181" stop-color="#0185fe"/><stop offset="1" stop-color="#f2ff06"/></linearGradient><g clip-rule="evenodd" fill-rule="evenodd"><path d="m84.7308 52.7932 13.2946-1.5733.535 5.8056-13.2396.8574zm-7.5914-13.9791 7.3475-6.962 4.0356 4.5234-8.2915 6.0888zm-14.4038-6.7496 2.8005-13.1845 5.5067 1.4003-3.6895 13.0901zm-3.5636 50.1264c-33.8267.1416-31.5139-45.3828-2.2656-45.5086 29.8146-.1338 30.7665 45.3828 2.2656 45.5086zm-2.187-39.648c-22.6717.0944-24.0169 34.3302 1.715 34.22 21.6962-.0944 21.3816-34.3222-1.715-34.22zm-15.4737-18.4866 5.9708-1.77 3.2017 9.1646-4.5233 1.5262zm-19.0924 13.216 2.9421-5.3494 11.0527 7.9611-2.2105 4.3267zm6.844 24.3866-10.2267.7867-.1573-6.372 9.9907.7867zm7.9296 16.9448-10.0851 9.5344-3.8074-5.2392 10.856-7.9925zm17.0235 9.912-.5507 10.2739-6.8597-.7237 2.8949-10.2896zm25.2205 6.5294-5.8607 2.8084-6.018-11.9888 5.1134-2.2499zm13.4992-19.3914-2.7061 5.2628-9.7154-6.2382 2.36-4.1772z" fill="url(#a)"/><path d="m129.289 67.0642c-6.365-23.7967 11.98-38.8692 30.137-38.7433-25.858 19.4385-1.959 58.6774 26.054 46.7988-12.248 19.6666-48.207 21.7277-56.191-8.0555z" fill="url(#b)"/></g></svg>