<?xml version="1.0" encoding="UTF-8"?> <svg xmlns="http://www.w3.org/2000/svg" width="70" height="70" viewBox="0 0 70 70" fill="none"> <path d="M2.25231e-07 33.5359C1.19033e-07 17.7234 6.59338e-08 9.81722 4.91634 4.9163C9.83267 0.0153751 17.7235 -3.65266e-05 33.5359 -3.6428e-05L36.4487 -3.64098e-05C52.2611 -3.63112e-05 60.1057 -3.62623e-05 65.0837 4.9163C70.0616 9.83264 70 17.7234 70 33.5359L70 36.4487C70 52.2611 70 60.1673 65.0837 65.0836C60.1673 70 52.2611 70 36.4487 70L33.5359 70C17.7235 70 9.81726 70 4.91634 65.0836C0.0154121 60.1673 3.50991e-07 52.2611 2.44793e-07 36.4487L2.25231e-07 33.5359Z" fill="#0077FF"></path> <path fill-rule="evenodd" clip-rule="evenodd" d="M27.6142 17.8571C23.3121 17.8571 21.5133 18.2561 19.6904 19.231C18.0175 20.1256 16.697 21.4462 15.8023 23.1191C14.8274 24.9419 14.4285 26.7407 14.4285 31.0428V38.9572C14.4285 43.2592 14.8274 45.058 15.8023 46.8809C16.697 48.5538 18.0175 49.8744 19.6904 50.769C21.5133 51.7439 23.3121 52.1429 27.6142 52.1429H42.3856C46.6877 52.1429 48.4865 51.7439 50.3094 50.769C51.9823 49.8744 53.3028 48.5538 54.1975 46.8809C55.1724 45.058 55.5713 43.2592 55.5713 38.9572V31.0428C55.5713 26.7407 55.1724 24.9419 54.1975 23.1191C53.3028 21.4462 51.9823 20.1256 50.3094 19.231C48.4865 18.2561 46.6877 17.8571 42.3856 17.8571H27.6142ZM20.9031 21.4985C22.1761 20.8177 23.4746 20.4286 27.6142 20.4286H42.3856C46.5252 20.4286 47.8237 20.8177 49.0967 21.4985C49.3166 21.6161 49.5278 21.7434 49.7301 21.8801L41.3639 30.2463C39.6239 31.9863 38.4084 33.1979 37.3697 33.9904C36.3606 34.7603 35.6709 35.0126 34.9999 35.0126C34.3289 35.0126 33.6392 34.7603 32.6301 33.9904C31.5914 33.1979 30.3759 31.9863 28.6359 30.2463L20.2697 21.8801C20.472 21.7434 20.6831 21.6161 20.9031 21.4985ZM18.4514 23.6983C18.3147 23.9006 18.1874 24.1118 18.0698 24.3318C17.389 25.6047 16.9999 26.9032 16.9999 31.0428V38.9572C16.9999 43.0968 17.389 44.3953 18.0698 45.6682C18.7248 46.893 19.6783 47.8465 20.9031 48.5015C22.1761 49.1823 23.4746 49.5714 27.6142 49.5714H42.3856C46.5252 49.5714 47.8237 49.1823 49.0967 48.5015C50.3215 47.8465 51.275 46.893 51.93 45.6682C52.6108 44.3953 52.9999 43.0968 52.9999 38.9572V31.0428C52.9999 26.9032 52.6108 25.6047 51.93 24.3318C51.8124 24.1118 51.6851 23.9006 51.5484 23.6983L43.1821 32.0646L43.1156 32.1311C41.4579 33.7889 40.1217 35.1252 38.9295 36.0348C37.6917 36.9792 36.4592 37.584 34.9999 37.584C33.5406 37.584 32.3081 36.9792 31.0703 36.0348C29.8781 35.1252 28.542 33.789 26.8842 32.1312L26.8177 32.0646L18.4514 23.6983Z" fill="white"></path> </svg> 