<?xml version="1.0" encoding="UTF-8"?> <svg xmlns="http://www.w3.org/2000/svg" width="70" height="70" viewBox="0 0 70 70" fill="none"> <path d="M2.25231e-07 33.5359C1.19033e-07 17.7235 6.59338e-08 9.81726 4.91633 4.91634C9.83267 0.0154119 17.7235 1.10541e-07 33.5359 2.09162e-07L36.4487 2.27329e-07C52.2611 3.25951e-07 60.1057 3.74877e-07 65.0836 4.91634C70.0616 9.83267 70 17.7235 70 33.5359L70 36.4487C70 52.2611 70 60.1673 65.0836 65.0837C60.1673 70 52.2611 70 36.4487 70L33.5359 70C17.7235 70 9.81726 70 4.91633 65.0837C0.0154118 60.1673 3.50991e-07 52.2611 2.44793e-07 36.4487L2.25231e-07 33.5359Z" fill="white"></path> <path d="M37.7984 11.2313C38.5547 11.4056 39.2352 11.6875 39.8932 12.099C40.5245 12.4938 41.0215 12.9102 41.9894 13.869L51.9319 23.8106C53.0342 24.9128 53.4798 25.4334 53.901 26.1068C54.3125 26.7648 54.5944 27.4453 54.7687 28.2016C54.9471 28.9756 55 29.6588 55 31.2176V44.9625C55 48.8466 54.6442 50.6894 53.6206 52.6032C52.6964 54.3313 51.3313 55.6964 49.6032 56.6206C47.6894 57.6442 45.8466 58 41.9625 58H29.0375C25.1534 58 23.3106 57.6442 21.3968 56.6206C19.6687 55.6964 18.3036 54.3313 17.3794 52.6032C16.3558 50.6894 16 48.8466 16 44.9625V22.6319C16 20.1405 16.4454 18.1432 17.3794 16.3968C18.3036 14.6687 19.6687 13.3036 21.3968 12.3794C23.1432 11.4454 25.1405 11 27.6319 11H34.7824C36.3412 11 37.0244 11.0529 37.7984 11.2313ZM35.0258 14.0004L27.6319 14C25.6103 14 24.0967 14.3375 22.8116 15.0248C21.6063 15.6694 20.6694 16.6063 20.0248 17.8116C19.3375 19.0967 19 20.6103 19 22.6319V44.9625C19 48.3937 19.2655 49.7686 20.0248 51.1884C20.6694 52.3937 21.6063 53.3306 22.8116 53.9752C24.2314 54.7345 25.6063 55 29.0375 55H41.9625C45.3937 55 46.7686 54.7345 48.1884 53.9752C49.3937 53.3306 50.3306 52.3937 50.9752 51.1884C51.7345 49.7686 52 48.3937 52 44.9625V31.2176C52 30.6566 51.9936 30.2455 51.9777 29.9201C51.8277 29.9727 51.667 30 51.5 30H40.5C38.0147 30 36 27.9853 36 25.5V14.5C36 14.333 36.0273 14.1723 36.0777 14.0223C35.8035 14.0088 35.4653 14.0022 35.0258 14.0004ZM38.9999 15.1675L39 25.5C39 26.3284 39.6716 27 40.5 27L50.8334 27.0011C50.6012 26.7355 50.2849 26.4063 49.8106 25.9319L40.0681 16.1894C39.5943 15.7156 39.2653 15.3995 38.9999 15.1675Z" fill="#2688EB"></path> </svg> 