<?xml version="1.0" encoding="UTF-8"?> <svg xmlns="http://www.w3.org/2000/svg" width="45" height="45" viewBox="0 0 45 45" fill="none"> <path fill-rule="evenodd" clip-rule="evenodd" d="M3.16305 3.16305C0 6.32655 0 11.4178 0 21.6V23.4C0 33.5821 0 38.6735 3.16305 41.8369C6.32655 45 11.4178 45 21.6 45H23.4C33.5821 45 38.6735 45 41.8369 41.8369C45 38.6735 45 33.5821 45 23.4V21.6C45 11.4178 45 6.32655 41.8369 3.16305C38.6735 0 33.5821 0 23.4 0H21.6C11.4178 0 6.32655 0 3.16305 3.16305ZM7.5942 13.6894C7.8381 25.3894 13.6881 32.4207 23.944 32.4207H24.5254V25.7269C28.2942 26.1018 31.144 28.858 32.2879 32.4207H37.6128C36.1503 27.0954 32.3064 24.152 29.9065 23.027C32.3064 21.6392 35.6814 18.2646 36.4878 13.6894H31.6503C30.6 17.4019 27.4882 20.777 24.5254 21.0956V13.6894H19.688V26.6643C16.6878 25.9142 12.9006 22.2768 12.7318 13.6894H7.5942Z" fill="#D0D0D0"></path> </svg> 