<?xml version="1.0" encoding="UTF-8"?> <svg xmlns="http://www.w3.org/2000/svg" width="281" height="44" viewBox="0 0 281 44" fill="none"> <rect x="0.5" y="1.02283" width="280" height="42" rx="21" fill="#363636"></rect> <path d="M28.6178 20.7403V15.9252H30.0358V26.9111H28.6178V21.9869H23.0235V26.9111H21.6055V15.9252H23.0235V20.7403H28.6178Z" fill="white"></path> <path d="M35.9102 18.5275C36.8555 18.5275 37.5931 18.808 38.1229 19.369C38.6631 19.93 38.9332 20.7195 38.9332 21.7376V26.9111H37.8892L37.7334 26.0385C36.9231 26.7553 36.04 27.1137 35.0843 27.1137C34.2947 27.1137 33.6507 26.8799 33.152 26.4125C32.6637 25.945 32.4196 25.3269 32.4196 24.5581C32.4196 23.7478 32.7105 23.1141 33.2922 22.657C33.8844 22.1895 34.6739 21.9558 35.6608 21.9558H37.5931V21.722C37.5931 21.0675 37.4425 20.5689 37.1412 20.2261C36.8399 19.8729 36.4088 19.6962 35.8478 19.6962C35.4946 19.6962 35.1726 19.769 34.8817 19.9144C34.5908 20.0598 34.3779 20.278 34.2428 20.5689H32.8559C33.0533 19.8936 33.4325 19.3846 33.9935 19.0418C34.5545 18.6989 35.1934 18.5275 35.9102 18.5275ZM33.7753 24.5113C33.7753 24.9373 33.9208 25.2853 34.2116 25.5554C34.5025 25.8151 34.8765 25.945 35.3336 25.945C35.718 25.945 36.1127 25.8567 36.5179 25.6801C36.9334 25.4931 37.2918 25.2489 37.5931 24.9477V23.0466H35.6764C35.0947 23.0466 34.6324 23.1764 34.2896 23.4361C33.9467 23.6958 33.7753 24.0543 33.7753 24.5113Z" fill="white"></path> <path d="M51.4693 26.9111H41.4339V18.7301H42.7741V25.7424H45.7815V18.7301H47.1217V25.7424H50.1292V18.7301H51.4693V26.9111Z" fill="white"></path> <path d="M61.0963 18.5275C62.0417 18.5275 62.7793 18.808 63.3091 19.369C63.8493 19.93 64.1194 20.7195 64.1194 21.7376V26.9111H63.0753L62.9195 26.0385C62.1092 26.7553 61.2262 27.1137 60.2704 27.1137C59.4809 27.1137 58.8368 26.8799 58.3382 26.4125C57.8499 25.945 57.6058 25.3269 57.6058 24.5581C57.6058 23.7478 57.8966 23.1141 58.4784 22.657C59.0706 22.1895 59.8601 21.9558 60.847 21.9558H62.7793V21.722C62.7793 21.0675 62.6286 20.5689 62.3274 20.2261C62.0261 19.8729 61.595 19.6962 61.034 19.6962C60.6808 19.6962 60.3587 19.769 60.0679 19.9144C59.777 20.0598 59.564 20.278 59.429 20.5689H58.0421C58.2395 19.8936 58.6187 19.3846 59.1796 19.0418C59.7406 18.6989 60.3795 18.5275 61.0963 18.5275ZM58.9615 24.5113C58.9615 24.9373 59.1069 25.2853 59.3978 25.5554C59.6887 25.8151 60.0627 25.945 60.5198 25.945C60.9041 25.945 61.2989 25.8567 61.7041 25.6801C62.1196 25.4931 62.478 25.2489 62.7793 24.9477V23.0466H60.8626C60.2808 23.0466 59.8185 23.1764 59.4757 23.4361C59.1329 23.6958 58.9615 24.0543 58.9615 24.5113Z" fill="white"></path> <path d="M73.0319 25.7424H74.3721V29.2797H73.0631V26.9111H66.7676V29.2797H65.4587V25.7424H65.708C66.1235 25.7424 66.4404 25.545 66.6586 25.1502C66.8871 24.7555 67.0533 24.0906 67.1572 23.1556L67.6403 18.7301H73.0319V25.7424ZM71.6918 25.7424V19.8988H68.8557L68.4818 23.1868C68.3883 23.9763 68.2792 24.5425 68.1545 24.8853C68.0402 25.2178 67.8636 25.4775 67.6247 25.6645V25.7424H71.6918Z" fill="white"></path> <path d="M79.8032 18.5275C80.4784 18.5275 81.0706 18.7041 81.5796 19.0573C82.0991 19.4002 82.4938 19.8936 82.7639 20.5377C83.0444 21.1714 83.1847 21.9142 83.1847 22.7661C83.1847 23.6179 83.034 24.3763 82.7328 25.0412C82.4315 25.6956 82.0056 26.2047 81.455 26.5683C80.9044 26.9319 80.2707 27.1137 79.5539 27.1137C78.7851 27.1137 78.0995 26.8747 77.4969 26.3969V30.0277H76.1568V18.7301H77.2008L77.3567 19.5248C77.7514 19.1716 78.1462 18.9171 78.541 18.7613C78.9461 18.6054 79.3669 18.5275 79.8032 18.5275ZM79.3669 25.945C80.1252 25.945 80.7174 25.6593 81.1433 25.0879C81.5796 24.5165 81.7978 23.7426 81.7978 22.7661C81.7978 21.8207 81.5952 21.0727 81.1901 20.5221C80.7953 19.9715 80.2499 19.6962 79.5539 19.6962C78.8786 19.6962 78.193 19.9663 77.4969 20.5066V25.2593C78.0891 25.7164 78.7124 25.945 79.3669 25.945Z" fill="white"></path> <path d="M91.9369 22.5947C91.9369 22.792 91.9265 22.9842 91.9057 23.1712H86.1401C86.192 24.0439 86.4257 24.7243 86.8413 25.2126C87.2568 25.7008 87.8386 25.945 88.5866 25.945C88.9709 25.945 89.319 25.8774 89.6306 25.7424C89.9423 25.597 90.176 25.384 90.3318 25.1035H91.7187C91.4694 25.7476 91.0642 26.2462 90.5033 26.5995C89.9527 26.9423 89.2826 27.1137 88.4931 27.1137C87.7347 27.1137 87.075 26.9371 86.514 26.5839C85.9634 26.2307 85.5375 25.732 85.2362 25.0879C84.935 24.4334 84.7843 23.6699 84.7843 22.7972C84.7843 21.935 84.9298 21.1818 85.2207 20.5377C85.5115 19.8936 85.9271 19.4002 86.4673 19.0573C87.0075 18.7041 87.6412 18.5275 88.3684 18.5275C89.0852 18.5275 89.7137 18.6937 90.2539 19.0262C90.7941 19.3586 91.2097 19.8313 91.5006 20.4442C91.7914 21.0571 91.9369 21.774 91.9369 22.5947ZM88.3684 19.6651C87.7659 19.6651 87.2724 19.878 86.888 20.304C86.5037 20.7299 86.2647 21.3221 86.1712 22.0804H90.5812C90.5084 21.3221 90.2747 20.7299 89.8799 20.304C89.4956 19.878 88.9917 19.6651 88.3684 19.6651Z" fill="white"></path> <path d="M97.1787 27.1137C96.4099 27.1137 95.7399 26.9423 95.1685 26.5995C94.6075 26.2462 94.1764 25.7476 93.8751 25.1035C93.5738 24.449 93.4232 23.6907 93.4232 22.8284C93.4232 21.9558 93.5738 21.1974 93.8751 20.5533C94.1764 19.8988 94.6075 19.4002 95.1685 19.0573C95.7399 18.7041 96.4099 18.5275 97.1787 18.5275C97.989 18.5275 98.685 18.7197 99.2668 19.1041C99.8589 19.4885 100.254 20.0547 100.451 20.8026H99.0642C98.7006 20.065 98.0877 19.6962 97.2254 19.6962C96.4671 19.6962 95.8749 19.9715 95.449 20.5221C95.0231 21.0727 94.8101 21.8415 94.8101 22.8284C94.8101 23.8049 95.0231 24.5685 95.449 25.1191C95.8749 25.6697 96.4723 25.945 97.241 25.945C97.7189 25.945 98.1292 25.8359 98.4721 25.6177C98.8149 25.3892 99.0486 25.0723 99.1733 24.6672H100.56C100.352 25.4567 99.942 26.0644 99.3291 26.4904C98.7266 26.9059 98.0098 27.1137 97.1787 27.1137Z" fill="white"></path> <path d="M113.606 20.7403V15.9252H115.024V26.9111H113.606V21.9869H108.012V26.9111H106.594V15.9252H108.012V20.7403H113.606Z" fill="white"></path> <path d="M124.514 22.5947C124.514 22.792 124.504 22.9842 124.483 23.1712H118.717C118.769 24.0439 119.003 24.7243 119.418 25.2126C119.834 25.7008 120.416 25.945 121.164 25.945C121.548 25.945 121.896 25.8774 122.208 25.7424C122.519 25.597 122.753 25.384 122.909 25.1035H124.296C124.047 25.7476 123.641 26.2462 123.08 26.5995C122.53 26.9423 121.86 27.1137 121.07 27.1137C120.312 27.1137 119.652 26.9371 119.091 26.5839C118.541 26.2307 118.115 25.732 117.813 25.0879C117.512 24.4334 117.362 23.6699 117.362 22.7972C117.362 21.935 117.507 21.1818 117.798 20.5377C118.089 19.8936 118.504 19.4002 119.044 19.0573C119.585 18.7041 120.218 18.5275 120.946 18.5275C121.662 18.5275 122.291 18.6937 122.831 19.0262C123.371 19.3586 123.787 19.8313 124.078 20.4442C124.369 21.0571 124.514 21.774 124.514 22.5947ZM120.946 19.6651C120.343 19.6651 119.85 19.878 119.465 20.304C119.081 20.7299 118.842 21.3221 118.748 22.0804H123.158C123.086 21.3221 122.852 20.7299 122.457 20.304C122.073 19.878 121.569 19.6651 120.946 19.6651Z" fill="white"></path> <path d="M131.376 22.6102C132.374 22.9323 132.872 23.592 132.872 24.5893C132.872 25.2957 132.618 25.8619 132.109 26.2878C131.6 26.7033 130.919 26.9111 130.068 26.9111H126.483V18.7301H129.974C130.764 18.7301 131.397 18.9223 131.875 19.3067C132.363 19.6911 132.608 20.1949 132.608 20.8182C132.608 21.2338 132.493 21.5922 132.265 21.8934C132.047 22.1843 131.75 22.3973 131.376 22.5323V22.6102ZM127.824 19.8209V22.1116H129.974C130.358 22.1116 130.665 22.0077 130.893 21.7999C131.132 21.5922 131.252 21.3169 131.252 20.974C131.252 20.6312 131.132 20.3559 130.893 20.1481C130.654 19.93 130.348 19.8209 129.974 19.8209H127.824ZM130.068 25.8203C130.504 25.8203 130.852 25.7008 131.112 25.4619C131.382 25.223 131.517 24.9061 131.517 24.5113C131.517 24.1062 131.387 23.7893 131.127 23.5608C130.867 23.3219 130.514 23.2024 130.068 23.2024H127.824V25.8203H130.068Z" fill="white"></path> <path d="M138.197 27.1137C137.428 27.1137 136.758 26.9423 136.187 26.5995C135.626 26.2462 135.195 25.7476 134.893 25.1035C134.592 24.449 134.441 23.6907 134.441 22.8284C134.441 21.9558 134.592 21.1974 134.893 20.5533C135.195 19.8988 135.626 19.4002 136.187 19.0573C136.758 18.7041 137.428 18.5275 138.197 18.5275C139.007 18.5275 139.703 18.7197 140.285 19.1041C140.877 19.4885 141.272 20.0547 141.469 20.8026H140.082C139.719 20.065 139.106 19.6962 138.244 19.6962C137.485 19.6962 136.893 19.9715 136.467 20.5221C136.041 21.0727 135.828 21.8415 135.828 22.8284C135.828 23.8049 136.041 24.5685 136.467 25.1191C136.893 25.6697 137.49 25.945 138.259 25.945C138.737 25.945 139.147 25.8359 139.49 25.6177C139.833 25.3892 140.067 25.0723 140.192 24.6672H141.578C141.371 25.4567 140.96 26.0644 140.347 26.4904C139.745 26.9059 139.028 27.1137 138.197 27.1137Z" fill="white"></path> <path d="M150.051 26.9111H148.43L145.734 23.3271H144.706V26.9111H143.366V18.7301H144.706V22.1583H145.75L148.259 18.7301H149.77L146.841 22.6882L150.051 26.9111Z" fill="white"></path> <path d="M153.184 26.9111H151.533V18.7301H152.842V25.2437H152.92L156.675 18.7301H158.327V26.9111H157.018V20.3975H156.94L153.184 26.9111Z" fill="white"></path> <path d="M162.554 26.9111H160.902V18.7301H162.211V25.2437H162.289L166.044 18.7301H167.696V26.9111H166.387V20.3975H166.309L162.554 26.9111ZM164.299 17.4835C163.665 17.4835 163.136 17.3069 162.71 16.9537C162.294 16.5901 162.04 16.0395 161.946 15.3019H163.084C163.208 16.1018 163.613 16.5018 164.299 16.5018C164.985 16.5018 165.39 16.1018 165.515 15.3019H166.652C166.559 16.0395 166.299 16.5901 165.873 16.9537C165.457 17.3069 164.933 17.4835 164.299 17.4835Z" fill="white"></path> <path d="M175.609 26.9111H174.269V18.7301H180.767V26.9111H179.427V19.8988H175.609V26.9111Z" fill="white"></path> <path d="M186.98 18.5275C187.655 18.5275 188.248 18.7041 188.757 19.0573C189.276 19.4002 189.671 19.8936 189.941 20.5377C190.221 21.1714 190.362 21.9142 190.362 22.7661C190.362 23.6179 190.211 24.3763 189.91 25.0412C189.608 25.6956 189.183 26.2047 188.632 26.5683C188.081 26.9319 187.448 27.1137 186.731 27.1137C185.962 27.1137 185.276 26.8747 184.674 26.3969V30.0277H183.334V18.7301H184.378L184.534 19.5248C184.928 19.1716 185.323 18.9171 185.718 18.7613C186.123 18.6054 186.544 18.5275 186.98 18.5275ZM186.544 25.945C187.302 25.945 187.894 25.6593 188.32 25.0879C188.757 24.5165 188.975 23.7426 188.975 22.7661C188.975 21.8207 188.772 21.0727 188.367 20.5221C187.972 19.9715 187.427 19.6962 186.731 19.6962C186.056 19.6962 185.37 19.9663 184.674 20.5066V25.2593C185.266 25.7164 185.889 25.945 186.544 25.945Z" fill="white"></path> <path d="M193.106 27.0358C192.815 27.0358 192.582 26.9475 192.405 26.7709C192.228 26.5943 192.14 26.3605 192.14 26.0696C192.14 25.7788 192.228 25.545 192.405 25.3684C192.582 25.1918 192.815 25.1035 193.106 25.1035C193.397 25.1035 193.631 25.1918 193.807 25.3684C193.984 25.545 194.072 25.7788 194.072 26.0696C194.072 26.3605 193.984 26.5943 193.807 26.7709C193.631 26.9475 193.397 27.0358 193.106 27.0358Z" fill="white"></path> <path d="M197.372 29.2485H196.312L196.936 25.2905H198.369L197.372 29.2485Z" fill="white"></path> <path d="M204.888 26.9111V25.5398L208.97 21.3792C209.334 21.0052 209.604 20.7039 209.781 20.4754C209.968 20.2468 210.113 20.0027 210.217 19.743C210.331 19.4833 210.388 19.1872 210.388 18.8548C210.388 18.2522 210.212 17.7796 209.858 17.4367C209.505 17.0939 209.017 16.9225 208.394 16.9225C207.812 16.9225 207.329 17.0835 206.944 17.4056C206.56 17.7276 206.311 18.1899 206.196 18.7924H204.778C204.965 17.8263 205.365 17.0731 205.978 16.5329C206.602 15.9927 207.412 15.7226 208.409 15.7226C209.095 15.7226 209.692 15.8577 210.201 16.1278C210.721 16.3875 211.115 16.7563 211.386 17.2342C211.666 17.7016 211.806 18.2418 211.806 18.8548C211.806 19.3223 211.723 19.7482 211.557 20.1326C211.401 20.5066 211.193 20.8494 210.934 21.161C210.684 21.4727 210.316 21.8778 209.827 22.3765L206.664 25.5866V25.6645L211.993 25.6021V26.9111H204.888Z" fill="white"></path> <path d="M218.002 27.1137C217.254 27.1137 216.589 26.9786 216.007 26.7085C215.436 26.428 214.989 26.0437 214.667 25.5554C214.355 25.0567 214.2 24.4854 214.2 23.8413C214.2 23.2076 214.361 22.6622 214.683 22.2051C215.005 21.7376 215.457 21.3948 216.038 21.1766V21.0987C215.571 20.8598 215.202 20.5325 214.932 20.117C214.672 19.7014 214.542 19.2184 214.542 18.6678C214.542 18.086 214.688 17.5718 214.979 17.1251C215.27 16.6784 215.675 16.3355 216.194 16.0966C216.724 15.8473 217.327 15.7226 218.002 15.7226C218.677 15.7226 219.274 15.8473 219.794 16.0966C220.324 16.3355 220.734 16.6784 221.025 17.1251C221.316 17.5718 221.461 18.086 221.461 18.6678C221.461 19.2184 221.326 19.7014 221.056 20.117C220.796 20.5325 220.433 20.8598 219.965 21.0987V21.1766C220.547 21.3948 220.999 21.7376 221.321 22.2051C221.643 22.6622 221.804 23.2076 221.804 23.8413C221.804 24.4854 221.643 25.0567 221.321 25.5554C221.009 26.0437 220.563 26.428 219.981 26.7085C219.409 26.9786 218.75 27.1137 218.002 27.1137ZM218.002 20.5689C218.656 20.5689 219.165 20.4079 219.529 20.0858C219.903 19.7638 220.09 19.3171 220.09 18.7457C220.09 18.1743 219.903 17.7276 219.529 17.4056C219.155 17.0835 218.646 16.9225 218.002 16.9225C217.358 16.9225 216.849 17.0835 216.475 17.4056C216.101 17.7276 215.914 18.1743 215.914 18.7457C215.914 19.3171 216.096 19.7638 216.459 20.0858C216.833 20.4079 217.347 20.5689 218.002 20.5689ZM218.002 25.9138C218.739 25.9138 219.321 25.7268 219.747 25.3528C220.173 24.9788 220.386 24.4698 220.386 23.8257C220.386 23.192 220.173 22.6934 219.747 22.3298C219.321 21.9558 218.739 21.7688 218.002 21.7688C217.264 21.7688 216.683 21.9558 216.257 22.3298C215.831 22.6934 215.618 23.192 215.618 23.8257C215.618 24.4698 215.831 24.9788 216.257 25.3528C216.683 25.7268 217.264 25.9138 218.002 25.9138Z" fill="white"></path> <path d="M236.501 31.396V30.5087L239.143 27.8165C239.378 27.5745 239.553 27.3796 239.667 27.2317C239.788 27.0838 239.882 26.9258 239.949 26.7578C240.023 26.5897 240.06 26.3982 240.06 26.1831C240.06 25.7932 239.946 25.4873 239.717 25.2655C239.489 25.0437 239.173 24.9328 238.77 24.9328C238.393 24.9328 238.081 25.037 237.832 25.2453C237.583 25.4537 237.422 25.7529 237.348 26.1427H236.43C236.551 25.5176 236.81 25.0302 237.207 24.6807C237.61 24.3311 238.134 24.1564 238.78 24.1564C239.223 24.1564 239.61 24.2438 239.939 24.4185C240.275 24.5866 240.531 24.8252 240.706 25.1344C240.887 25.4369 240.978 25.7865 240.978 26.1831C240.978 26.4856 240.924 26.7612 240.817 27.0099C240.716 27.2519 240.581 27.4737 240.413 27.6753C240.252 27.877 240.013 28.1392 239.697 28.4618L237.65 30.5389V30.5893L241.099 30.549V31.396H236.501Z" fill="white"></path> <path d="M244.785 31.5271C244.146 31.5271 243.612 31.3725 243.182 31.0632C242.752 30.754 242.463 30.3406 242.315 29.823H243.232C243.501 30.4415 244.019 30.7507 244.785 30.7507C245.242 30.7507 245.598 30.633 245.854 30.3978C246.116 30.1558 246.247 29.8264 246.247 29.4096C246.247 29.0198 246.133 28.7105 245.904 28.482C245.682 28.2467 245.38 28.1291 244.997 28.1291H244.039V27.3527H244.815C245.205 27.3527 245.511 27.2485 245.733 27.0401C245.955 26.8317 246.066 26.5393 246.066 26.1629C246.066 25.7865 245.951 25.4873 245.723 25.2655C245.494 25.0437 245.182 24.9328 244.785 24.9328C244.153 24.9328 243.71 25.2185 243.454 25.7898H242.537C242.698 25.2789 242.97 24.879 243.353 24.5899C243.736 24.3009 244.217 24.1564 244.795 24.1564C245.239 24.1564 245.625 24.237 245.955 24.3984C246.284 24.5597 246.536 24.7849 246.711 25.0739C246.892 25.363 246.983 25.6991 246.983 26.0822C246.983 26.8149 246.627 27.3359 245.914 27.6451V27.6955C246.298 27.8165 246.6 28.0283 246.822 28.3307C247.05 28.6332 247.165 29.0029 247.165 29.4399C247.165 29.8566 247.067 30.223 246.872 30.5389C246.677 30.8481 246.402 31.0901 246.045 31.2649C245.689 31.4397 245.269 31.5271 244.785 31.5271Z" fill="white"></path> <path d="M249.53 30.7708C249.341 30.7708 249.19 30.7137 249.076 30.5994C248.962 30.4852 248.904 30.3339 248.904 30.1457C248.904 29.9575 248.962 29.8062 249.076 29.692C249.19 29.5777 249.341 29.5205 249.53 29.5205C249.718 29.5205 249.869 29.5777 249.983 29.692C250.098 29.8062 250.155 29.9575 250.155 30.1457C250.155 30.3339 250.098 30.4852 249.983 30.5994C249.869 30.7137 249.718 30.7708 249.53 30.7708ZM249.53 26.6973C249.341 26.6973 249.19 26.6402 249.076 26.5259C248.962 26.4116 248.904 26.2604 248.904 26.0721C248.904 25.8839 248.962 25.7327 249.076 25.6184C249.19 25.5041 249.341 25.447 249.53 25.447C249.718 25.447 249.869 25.5041 249.983 25.6184C250.098 25.7327 250.155 25.8839 250.155 26.0721C250.155 26.2604 250.098 26.4116 249.983 26.5259C249.869 26.6402 249.718 26.6973 249.53 26.6973Z" fill="white"></path> <path d="M251.828 25.3563L253.471 24.2875H254.339V31.396H253.482V25.205L251.828 26.294V25.3563Z" fill="white"></path> <path d="M256.726 31.396V30.5087L259.367 27.8165C259.603 27.5745 259.778 27.3796 259.892 27.2317C260.013 27.0838 260.107 26.9258 260.174 26.7578C260.248 26.5897 260.285 26.3982 260.285 26.1831C260.285 25.7932 260.171 25.4873 259.942 25.2655C259.714 25.0437 259.398 24.9328 258.994 24.9328C258.618 24.9328 258.305 25.037 258.057 25.2453C257.808 25.4537 257.647 25.7529 257.573 26.1427H256.655C256.776 25.5176 257.035 25.0302 257.432 24.6807C257.835 24.3311 258.359 24.1564 259.005 24.1564C259.448 24.1564 259.835 24.2438 260.164 24.4185C260.5 24.5866 260.756 24.8252 260.93 25.1344C261.112 25.4369 261.203 25.7865 261.203 26.1831C261.203 26.4856 261.149 26.7612 261.041 27.0099C260.94 27.2519 260.806 27.4737 260.638 27.6753C260.477 27.877 260.238 28.1392 259.922 28.4618L257.875 30.5389V30.5893L261.324 30.549V31.396H256.726Z" fill="white"></path> <rect x="0.5" y="1.02283" width="280" height="42" rx="21" stroke="#535353"></rect> </svg> 