<?xml version="1.0" encoding="UTF-8"?> <svg xmlns="http://www.w3.org/2000/svg" width="233" height="44" viewBox="0 0 233 44" fill="none"> <rect x="0.997559" y="1.26147" width="231" height="42" rx="21" fill="#0077FF"></rect> <path d="M22.5211 27.1498H21.103V16.1639H27.7881V17.4105H22.5211V27.1498Z" fill="white"></path> <path d="M34.5196 25.9811H35.8597V29.5184H34.5508V27.1498H28.2553V29.5184H26.9464V25.9811H27.1957C27.6112 25.9811 27.9281 25.7837 28.1462 25.3889C28.3748 24.9942 28.541 24.3293 28.6449 23.3943L29.128 18.9688H34.5196V25.9811ZM33.1795 25.9811V20.1375H30.3434L29.9694 23.4255C29.8759 24.215 29.7669 24.7812 29.6422 25.124C29.5279 25.4565 29.3513 25.7162 29.1124 25.9032V25.9811H33.1795Z" fill="white"></path> <path d="M44.3139 22.8333C44.3139 23.0307 44.3036 23.2229 44.2828 23.4099H38.5171C38.5691 24.2826 38.8028 24.963 39.2183 25.4513C39.6339 25.9395 40.2156 26.1837 40.9636 26.1837C41.348 26.1837 41.696 26.1161 42.0077 25.9811C42.3193 25.8356 42.5531 25.6227 42.7089 25.3422H44.0958C43.8465 25.9863 43.4413 26.4849 42.8803 26.8381C42.3297 27.181 41.6597 27.3524 40.8701 27.3524C40.1118 27.3524 39.4521 27.1758 38.8911 26.8226C38.3405 26.4693 37.9146 25.9707 37.6133 25.3266C37.312 24.6721 37.1614 23.9086 37.1614 23.0359C37.1614 22.1737 37.3068 21.4205 37.5977 20.7764C37.8886 20.1323 38.3041 19.6389 38.8444 19.296C39.3846 18.9428 40.0183 18.7662 40.7455 18.7662C41.4623 18.7662 42.0908 18.9324 42.631 19.2649C43.1712 19.5973 43.5867 20.07 43.8776 20.6829C44.1685 21.2958 44.3139 22.0126 44.3139 22.8333ZM40.7455 19.9038C40.1429 19.9038 39.6495 20.1167 39.2651 20.5427C38.8807 20.9686 38.6418 21.5607 38.5483 22.3191H42.9582C42.8855 21.5607 42.6518 20.9686 42.257 20.5427C41.8726 20.1167 41.3688 19.9038 40.7455 19.9038Z" fill="white"></path> <path d="M51.621 27.1498H50.2808V18.9688H56.7789V27.1498H55.4388V20.1375H51.621V27.1498Z" fill="white"></path> <path d="M62.587 27.3524C61.8391 27.3524 61.1846 27.181 60.6236 26.8381C60.0626 26.4849 59.6263 25.9863 59.3146 25.3422C59.0134 24.6877 58.8627 23.9241 58.8627 23.0515C58.8627 22.1789 59.0134 21.4205 59.3146 20.7764C59.6263 20.1323 60.0626 19.6389 60.6236 19.296C61.1846 18.9428 61.8391 18.7662 62.587 18.7662C63.335 18.7662 63.9895 18.9428 64.5505 19.296C65.1115 19.6389 65.5426 20.1323 65.8438 20.7764C66.1451 21.4205 66.2958 22.1789 66.2958 23.0515C66.2958 23.9241 66.1451 24.6877 65.8438 25.3422C65.5426 25.9863 65.1115 26.4849 64.5505 26.8381C63.9895 27.181 63.335 27.3524 62.587 27.3524ZM62.587 26.1837C63.3038 26.1837 63.87 25.9084 64.2856 25.3578C64.7011 24.7968 64.9089 24.028 64.9089 23.0515C64.9089 22.0854 64.7011 21.327 64.2856 20.7764C63.87 20.2154 63.3038 19.9349 62.587 19.9349C61.8598 19.9349 61.2885 20.2102 60.8729 20.7608C60.4574 21.3114 60.2496 22.075 60.2496 23.0515C60.2496 24.028 60.4574 24.7968 60.8729 25.3578C61.2885 25.9084 61.8598 26.1837 62.587 26.1837Z" fill="white"></path> <path d="M69.1824 18.9688H74.574V27.1498H73.2339V20.1375H70.429L70.055 24.3449C69.9615 25.3734 69.7278 26.1213 69.3538 26.5888C68.9798 27.0459 68.424 27.2745 67.6864 27.2745C67.5617 27.2745 67.3436 27.2641 67.0319 27.2433V25.9655C67.115 25.9759 67.2657 25.9811 67.4838 25.9811C67.7747 25.9811 67.9981 25.9343 68.1539 25.8408C68.3201 25.7473 68.4448 25.5863 68.5279 25.3578C68.611 25.1188 68.6733 24.776 68.7149 24.3293L69.1824 18.9688Z" fill="white"></path> <path d="M82.4079 18.9688H83.7637L80.7406 27.851C80.5224 28.4951 80.2887 28.9886 80.0393 29.3314C79.79 29.6742 79.4888 29.9132 79.1355 30.0482C78.7823 30.1936 78.32 30.2664 77.7487 30.2664H77.1721V29.0509H77.7954C78.2733 29.0509 78.6265 28.9626 78.855 28.786C79.0836 28.6198 79.2914 28.277 79.4784 27.7575L79.603 27.3835L76.2683 18.9688H77.6863L80.1952 25.498H80.2731L82.4079 18.9688Z" fill="white"></path> <path d="M89.9325 24.1111C89.6624 24.2254 89.3559 24.3137 89.0131 24.376C88.6703 24.4384 88.3379 24.4695 88.0158 24.4695C87.0912 24.4695 86.364 24.2098 85.8342 23.6904C85.3148 23.171 85.0551 22.4438 85.0551 21.5088V18.9688H86.3952V21.5088C86.3952 22.101 86.5406 22.5477 86.8315 22.8489C87.1328 23.1502 87.5639 23.3008 88.1249 23.3008C88.4054 23.3008 88.7119 23.2697 89.0443 23.2073C89.3767 23.1346 89.6728 23.0411 89.9325 22.9268V18.9688H91.2726V27.1498H89.9325V24.1111Z" fill="white"></path> <path d="M95.4922 27.1498H93.8404V18.9688H95.1494V25.4824H95.2273L98.9827 18.9688H100.635V27.1498H99.3256V20.6362H99.2477L95.4922 27.1498Z" fill="white"></path> <path d="M106.482 27.1498H105.142V20.1375H102.446V18.9688H109.178V20.1375H106.482V27.1498Z" fill="white"></path> <path d="M114.035 21.4776C114.991 21.4776 115.75 21.7322 116.311 22.2412C116.882 22.7502 117.168 23.4411 117.168 24.3137C117.168 25.1864 116.882 25.8772 116.311 26.3862C115.75 26.8953 114.991 27.1498 114.035 27.1498H110.981V18.9688H112.321V21.4776H114.035ZM114.035 25.9811C114.586 25.9811 115.017 25.8304 115.329 25.5292C115.651 25.2279 115.812 24.8228 115.812 24.3137C115.812 23.8047 115.651 23.3995 115.329 23.0983C115.017 22.797 114.586 22.6464 114.035 22.6464H112.321V25.9811H114.035Z" fill="white"></path> <path d="M125.563 27.3524C124.721 27.3524 124.01 27.1602 123.428 26.7758C122.846 26.381 122.482 25.8564 122.337 25.2019H123.724C123.838 25.524 124.056 25.7681 124.378 25.9343C124.711 26.1006 125.095 26.1837 125.531 26.1837C126.082 26.1837 126.518 26.0642 126.84 25.8253C127.173 25.5759 127.339 25.2435 127.339 24.828C127.339 24.4332 127.194 24.1215 126.903 23.893C126.622 23.654 126.248 23.5346 125.781 23.5346H124.394V22.3659H125.75C126.165 22.3659 126.498 22.2568 126.747 22.0386C127.007 21.8205 127.136 21.5296 127.136 21.166C127.136 20.7816 126.991 20.4803 126.7 20.2622C126.409 20.044 126.02 19.9349 125.531 19.9349C124.742 19.9349 124.197 20.2258 123.895 20.8076H122.508C122.716 20.1531 123.085 19.6492 123.615 19.296C124.145 18.9428 124.799 18.7662 125.578 18.7662C126.15 18.7662 126.653 18.8649 127.09 19.0623C127.536 19.2597 127.879 19.535 128.118 19.8882C128.368 20.2414 128.492 20.6414 128.492 21.0881C128.492 21.514 128.383 21.8724 128.165 22.1633C127.947 22.4542 127.64 22.6723 127.246 22.8178V22.8957C127.671 23.0203 128.02 23.2593 128.29 23.6125C128.56 23.9657 128.695 24.3968 128.695 24.9059C128.695 25.6538 128.409 26.2512 127.838 26.6979C127.266 27.1342 126.508 27.3524 125.563 27.3524Z" fill="white"></path> <path d="M133.926 18.7662C134.871 18.7662 135.609 19.0467 136.139 19.6077C136.679 20.1687 136.949 20.9582 136.949 21.9763V27.1498H135.905L135.749 26.2772C134.939 26.994 134.056 27.3524 133.1 27.3524C132.31 27.3524 131.666 27.1186 131.168 26.6511C130.679 26.1837 130.435 25.5655 130.435 24.7968C130.435 23.9865 130.726 23.3528 131.308 22.8957C131.9 22.4282 132.69 22.1944 133.677 22.1944H135.609V21.9607C135.609 21.3062 135.458 20.8076 135.157 20.4648C134.856 20.1115 134.424 19.9349 133.864 19.9349C133.51 19.9349 133.188 20.0077 132.897 20.1531C132.606 20.2985 132.394 20.5167 132.258 20.8076H130.872C131.069 20.1323 131.448 19.6233 132.009 19.2805C132.57 18.9376 133.209 18.7662 133.926 18.7662ZM131.791 24.75C131.791 25.176 131.936 25.524 132.227 25.7941C132.518 26.0538 132.892 26.1837 133.349 26.1837C133.734 26.1837 134.128 26.0954 134.534 25.9188C134.949 25.7318 135.308 25.4876 135.609 25.1864V23.2852H133.692C133.11 23.2852 132.648 23.4151 132.305 23.6748C131.962 23.9345 131.791 24.2929 131.791 24.75Z" fill="white"></path> <path d="M146.135 27.1498H144.514L141.818 23.5657H140.79V27.1498H139.45V18.9688H140.79V22.397H141.834L144.343 18.9688H145.854L142.925 22.9268L146.135 27.1498Z" fill="white"></path> <path d="M150.519 18.7662C151.464 18.7662 152.202 19.0467 152.732 19.6077C153.272 20.1687 153.542 20.9582 153.542 21.9763V27.1498H152.498L152.342 26.2772C151.532 26.994 150.649 27.3524 149.693 27.3524C148.903 27.3524 148.259 27.1186 147.761 26.6511C147.272 26.1837 147.028 25.5655 147.028 24.7968C147.028 23.9865 147.319 23.3528 147.901 22.8957C148.493 22.4282 149.283 22.1944 150.269 22.1944H152.202V21.9607C152.202 21.3062 152.051 20.8076 151.75 20.4648C151.449 20.1115 151.017 19.9349 150.456 19.9349C150.103 19.9349 149.781 20.0077 149.49 20.1531C149.199 20.2985 148.986 20.5167 148.851 20.8076H147.465C147.662 20.1323 148.041 19.6233 148.602 19.2805C149.163 18.9376 149.802 18.7662 150.519 18.7662ZM148.384 24.75C148.384 25.176 148.529 25.524 148.82 25.7941C149.111 26.0538 149.485 26.1837 149.942 26.1837C150.327 26.1837 150.721 26.0954 151.127 25.9188C151.542 25.7318 151.9 25.4876 152.202 25.1864V23.2852H150.285C149.703 23.2852 149.241 23.4151 148.898 23.6748C148.555 23.9345 148.384 24.2929 148.384 24.75Z" fill="white"></path> <path d="M158.52 27.3524C157.679 27.3524 156.967 27.1602 156.385 26.7758C155.804 26.381 155.44 25.8564 155.295 25.2019H156.681C156.796 25.524 157.014 25.7681 157.336 25.9343C157.668 26.1006 158.053 26.1837 158.489 26.1837C159.04 26.1837 159.476 26.0642 159.798 25.8253C160.13 25.5759 160.297 25.2435 160.297 24.828C160.297 24.4332 160.151 24.1215 159.86 23.893C159.58 23.654 159.206 23.5346 158.738 23.5346H157.352V22.3659H158.707C159.123 22.3659 159.455 22.2568 159.705 22.0386C159.964 21.8205 160.094 21.5296 160.094 21.166C160.094 20.7816 159.949 20.4803 159.658 20.2622C159.367 20.044 158.977 19.9349 158.489 19.9349C157.7 19.9349 157.154 20.2258 156.853 20.8076H155.466C155.674 20.1531 156.043 19.6492 156.572 19.296C157.102 18.9428 157.757 18.7662 158.536 18.7662C159.107 18.7662 159.611 18.8649 160.047 19.0623C160.494 19.2597 160.837 19.535 161.076 19.8882C161.325 20.2414 161.45 20.6414 161.45 21.0881C161.45 21.514 161.341 21.8724 161.123 22.1633C160.904 22.4542 160.598 22.6723 160.203 22.8178V22.8957C160.629 23.0203 160.977 23.2593 161.247 23.6125C161.517 23.9657 161.652 24.3968 161.652 24.9059C161.652 25.6538 161.367 26.2512 160.795 26.6979C160.224 27.1342 159.466 27.3524 158.52 27.3524Z" fill="white"></path> <path d="M165.528 23.4255C165.528 22.9996 165.6 22.6308 165.746 22.3191C165.891 21.9971 166.068 21.7322 166.276 21.5244C166.484 21.3062 166.759 21.0673 167.102 20.8076C167.538 20.4648 167.86 20.1583 168.068 19.8882C168.286 19.6077 168.395 19.2597 168.395 18.8441C168.395 18.3143 168.224 17.904 167.881 17.6131C167.548 17.3118 167.096 17.1612 166.525 17.1612C165.985 17.1612 165.528 17.3014 165.154 17.5819C164.78 17.852 164.52 18.252 164.375 18.7818H162.957C163.175 17.8988 163.585 17.2079 164.188 16.7093C164.801 16.2106 165.58 15.9613 166.525 15.9613C167.522 15.9613 168.317 16.2158 168.909 16.7249C169.512 17.2235 169.813 17.8988 169.813 18.7506C169.813 19.2077 169.735 19.6025 169.579 19.9349C169.423 20.2674 169.236 20.5427 169.018 20.7608C168.8 20.979 168.514 21.2231 168.161 21.4932C167.715 21.836 167.382 22.1425 167.164 22.4126C166.956 22.6723 166.852 23.01 166.852 23.4255V23.9709H165.528V23.4255ZM166.198 27.2745C165.907 27.2745 165.673 27.1862 165.497 27.0096C165.32 26.8329 165.232 26.5992 165.232 26.3083C165.232 26.0174 165.32 25.7837 165.497 25.6071C165.673 25.4305 165.907 25.3422 166.198 25.3422C166.489 25.3422 166.722 25.4305 166.899 25.6071C167.076 25.7837 167.164 26.0174 167.164 26.3083C167.164 26.5992 167.076 26.8329 166.899 27.0096C166.722 27.1862 166.489 27.2745 166.198 27.2745Z" fill="white"></path> <path d="M185.551 31.6346V30.7473L188.193 28.0552C188.428 27.8132 188.603 27.6182 188.717 27.4703C188.838 27.3225 188.932 27.1645 188.999 26.9964C189.073 26.8284 189.11 26.6368 189.11 26.4217C189.11 26.0318 188.996 25.726 188.768 25.5042C188.539 25.2823 188.223 25.1714 187.82 25.1714C187.443 25.1714 187.131 25.2756 186.882 25.484C186.633 25.6924 186.472 25.9915 186.398 26.3814H185.48C185.601 25.7562 185.86 25.2689 186.257 24.9193C186.66 24.5698 187.184 24.395 187.83 24.395C188.273 24.395 188.66 24.4824 188.989 24.6572C189.325 24.8252 189.581 25.0639 189.756 25.3731C189.937 25.6756 190.028 26.0251 190.028 26.4217C190.028 26.7242 189.974 26.9998 189.867 27.2485C189.766 27.4905 189.631 27.7123 189.463 27.914C189.302 28.1157 189.063 28.3778 188.747 28.7005L186.701 30.7776V30.828L190.149 30.7877V31.6346H185.551Z" fill="white"></path> <path d="M193.835 31.7657C193.197 31.7657 192.662 31.6111 192.232 31.3019C191.802 30.9927 191.513 30.5793 191.365 30.0617H192.282C192.551 30.6801 193.069 30.9893 193.835 30.9893C194.292 30.9893 194.648 30.8717 194.904 30.6364C195.166 30.3944 195.297 30.065 195.297 29.6483C195.297 29.2584 195.183 28.9492 194.954 28.7206C194.733 28.4854 194.43 28.3677 194.047 28.3677H193.089V27.5913H193.865C194.255 27.5913 194.561 27.4871 194.783 27.2788C195.005 27.0704 195.116 26.778 195.116 26.4015C195.116 26.0251 195.001 25.726 194.773 25.5042C194.544 25.2823 194.232 25.1714 193.835 25.1714C193.203 25.1714 192.76 25.4571 192.504 26.0285H191.587C191.748 25.5176 192.02 25.1176 192.403 24.8286C192.786 24.5395 193.267 24.395 193.845 24.395C194.289 24.395 194.675 24.4757 195.005 24.637C195.334 24.7983 195.586 25.0235 195.761 25.3126C195.942 25.6016 196.033 25.9377 196.033 26.3209C196.033 27.0536 195.677 27.5745 194.964 27.8837V27.9342C195.348 28.0552 195.65 28.2669 195.872 28.5694C196.1 28.8719 196.215 29.2416 196.215 29.6785C196.215 30.0953 196.117 30.4616 195.922 30.7776C195.727 31.0868 195.452 31.3288 195.096 31.5036C194.739 31.6783 194.319 31.7657 193.835 31.7657Z" fill="white"></path> <path d="M198.58 31.0095C198.391 31.0095 198.24 30.9523 198.126 30.8381C198.012 30.7238 197.954 30.5726 197.954 30.3843C197.954 30.1961 198.012 30.0449 198.126 29.9306C198.24 29.8163 198.391 29.7592 198.58 29.7592C198.768 29.7592 198.919 29.8163 199.033 29.9306C199.148 30.0449 199.205 30.1961 199.205 30.3843C199.205 30.5726 199.148 30.7238 199.033 30.8381C198.919 30.9523 198.768 31.0095 198.58 31.0095ZM198.58 26.9359C198.391 26.9359 198.24 26.8788 198.126 26.7645C198.012 26.6503 197.954 26.499 197.954 26.3108C197.954 26.1226 198.012 25.9713 198.126 25.8571C198.24 25.7428 198.391 25.6856 198.58 25.6856C198.768 25.6856 198.919 25.7428 199.033 25.8571C199.148 25.9713 199.205 26.1226 199.205 26.3108C199.205 26.499 199.148 26.6503 199.033 26.7645C198.919 26.8788 198.768 26.9359 198.58 26.9359Z" fill="white"></path> <path d="M200.878 25.5949L202.521 24.5261H203.389V31.6346H202.532V25.4437L200.878 26.5326V25.5949Z" fill="white"></path> <path d="M205.705 25.5949L207.349 24.5261H208.216V31.6346H207.359V25.4437L205.705 26.5326V25.5949Z" fill="white"></path> <rect x="0.997559" y="1.26147" width="231" height="42" rx="21" stroke="#489EFF"></rect> </svg> 