<?xml version="1.0" encoding="UTF-8"?> <svg xmlns="http://www.w3.org/2000/svg" width="281" height="43" viewBox="0 0 281 43" fill="none"> <rect x="0.5" y="0.5" width="280" height="42" rx="21" fill="#363636"></rect> <path d="M23.0235 26.3883H21.6055V15.4024H29.9423V26.3883H28.5243V16.649H23.0235V26.3883Z" fill="white"></path> <path d="M36.411 18.0047C37.0863 18.0047 37.6784 18.1813 38.1875 18.5346C38.7069 18.8774 39.1016 19.3708 39.3718 20.0149C39.6522 20.6486 39.7925 21.3914 39.7925 22.2433C39.7925 23.0951 39.6419 23.8535 39.3406 24.5184C39.0393 25.1729 38.6134 25.6819 38.0628 26.0455C37.5122 26.4091 36.8785 26.5909 36.1617 26.5909C35.3929 26.5909 34.7073 26.352 34.1047 25.8741V29.5049H32.7646V18.2073H33.8087L33.9645 19.002C34.3593 18.6488 34.754 18.3943 35.1488 18.2385C35.554 18.0827 35.9747 18.0047 36.411 18.0047ZM35.9747 25.4222C36.7331 25.4222 37.3252 25.1365 37.7511 24.5651C38.1875 23.9938 38.4056 23.2198 38.4056 22.2433C38.4056 21.2979 38.203 20.5499 37.7979 19.9994C37.4031 19.4488 36.8577 19.1735 36.1617 19.1735C35.4864 19.1735 34.8008 19.4436 34.1047 19.9838V24.7365C34.6969 25.1936 35.3202 25.4222 35.9747 25.4222Z" fill="white"></path> <path d="M43.527 26.3883H41.8752V18.2073H43.1842V24.721H43.2621L47.0176 18.2073H48.6694V26.3883H47.3604V19.8747H47.2825L43.527 26.3883Z" fill="white"></path> <path d="M56.1376 22.0875C57.1349 22.4095 57.6335 23.0692 57.6335 24.0665C57.6335 24.7729 57.379 25.3391 56.87 25.765C56.3609 26.1806 55.6805 26.3883 54.8286 26.3883H51.2445V18.2073H54.7351C55.5246 18.2073 56.1583 18.3995 56.6362 18.7839C57.1245 19.1683 57.3686 19.6721 57.3686 20.2954C57.3686 20.711 57.2543 21.0694 57.0258 21.3706C56.8076 21.6615 56.5116 21.8745 56.1376 22.0095V22.0875ZM52.5847 19.2981V21.5888H54.7351C55.1195 21.5888 55.426 21.4849 55.6545 21.2771C55.8934 21.0694 56.0129 20.7941 56.0129 20.4513C56.0129 20.1084 55.8934 19.8331 55.6545 19.6254C55.4156 19.4072 55.1091 19.2981 54.7351 19.2981H52.5847ZM54.8286 25.2975C55.2649 25.2975 55.6129 25.1781 55.8727 24.9391C56.1428 24.7002 56.2778 24.3833 56.2778 23.9886C56.2778 23.5834 56.148 23.2666 55.8882 23.038C55.6285 22.7991 55.2753 22.6796 54.8286 22.6796H52.5847V25.2975H54.8286Z" fill="white"></path> <path d="M66.3551 22.0719C66.3551 22.2693 66.3447 22.4614 66.3239 22.6484H60.5582C60.6102 23.5211 60.8439 24.2015 61.2595 24.6898C61.675 25.1781 62.2568 25.4222 63.0047 25.4222C63.3891 25.4222 63.7371 25.3547 64.0488 25.2196C64.3604 25.0742 64.5942 24.8612 64.75 24.5807H66.1369C65.8876 25.2248 65.4824 25.7235 64.9214 26.0767C64.3708 26.4195 63.7008 26.5909 62.9112 26.5909C62.1529 26.5909 61.4932 26.4143 60.9322 26.0611C60.3816 25.7079 59.9557 25.2092 59.6544 24.5651C59.3532 23.9106 59.2025 23.1471 59.2025 22.2744C59.2025 21.4122 59.348 20.659 59.6388 20.0149C59.9297 19.3708 60.3453 18.8774 60.8855 18.5346C61.4257 18.1813 62.0594 18.0047 62.7866 18.0047C63.5034 18.0047 64.1319 18.171 64.6721 18.5034C65.2123 18.8358 65.6278 19.3085 65.9187 19.9214C66.2096 20.5344 66.3551 21.2512 66.3551 22.0719ZM62.7866 19.1423C62.184 19.1423 61.6906 19.3553 61.3062 19.7812C60.9218 20.2071 60.6829 20.7993 60.5894 21.5576H64.9993C64.9266 20.7993 64.6929 20.2071 64.2981 19.7812C63.9137 19.3553 63.4099 19.1423 62.7866 19.1423Z" fill="white"></path> <path d="M71.2925 26.3883H69.9524V19.376H67.2565V18.2073H73.9883V19.376H71.2925V26.3883Z" fill="white"></path> <path d="M77.4589 23.2094H76.5707L76.3058 18.3943V15.4024H77.7238V18.3943L77.4589 23.2094ZM77.007 26.513C76.7161 26.513 76.4824 26.4247 76.3058 26.2481C76.1292 26.0715 76.0409 25.8377 76.0409 25.5468C76.0409 25.256 76.1292 25.0222 76.3058 24.8456C76.4824 24.669 76.7161 24.5807 77.007 24.5807C77.2979 24.5807 77.5317 24.669 77.7083 24.8456C77.8849 25.0222 77.9732 25.256 77.9732 25.5468C77.9732 25.8377 77.8849 26.0715 77.7083 26.2481C77.5317 26.4247 77.2979 26.513 77.007 26.513Z" fill="white"></path> <path d="M90.8526 22.0251C90.0216 22.4095 89.1749 22.6017 88.3126 22.6017C87.1283 22.6017 86.2141 22.2796 85.5701 21.6356C84.926 20.9915 84.6039 20.0721 84.6039 18.8774V15.4024H86.022V18.8618C86.022 19.6825 86.2193 20.3058 86.6141 20.7317C87.0193 21.1473 87.6166 21.3551 88.4061 21.3551C88.8217 21.3551 89.2476 21.2979 89.6839 21.1836C90.1306 21.0694 90.5202 20.9187 90.8526 20.7317V15.4024H92.2707V26.3883H90.8526V22.0251Z" fill="white"></path> <path d="M101.758 22.0719C101.758 22.2693 101.748 22.4614 101.727 22.6484H95.9611C96.0131 23.5211 96.2468 24.2015 96.6624 24.6898C97.0779 25.1781 97.6597 25.4222 98.4077 25.4222C98.792 25.4222 99.14 25.3547 99.4517 25.2196C99.7634 25.0742 99.9971 24.8612 100.153 24.5807H101.54C101.29 25.2248 100.885 25.7235 100.324 26.0767C99.7737 26.4195 99.1037 26.5909 98.3142 26.5909C97.5558 26.5909 96.8961 26.4143 96.3351 26.0611C95.7845 25.7079 95.3586 25.2092 95.0573 24.5651C94.7561 23.9106 94.6054 23.1471 94.6054 22.2744C94.6054 21.4122 94.7509 20.659 95.0418 20.0149C95.3326 19.3708 95.7482 18.8774 96.2884 18.5346C96.8286 18.1813 97.4623 18.0047 98.1895 18.0047C98.9063 18.0047 99.5348 18.171 100.075 18.5034C100.615 18.8358 101.031 19.3085 101.322 19.9214C101.613 20.5344 101.758 21.2512 101.758 22.0719ZM98.1895 19.1423C97.587 19.1423 97.0935 19.3553 96.7091 19.7812C96.3247 20.2071 96.0858 20.7993 95.9923 21.5576H100.402C100.33 20.7993 100.096 20.2071 99.701 19.7812C99.3166 19.3553 98.8128 19.1423 98.1895 19.1423Z" fill="white"></path> <path d="M105.005 26.3883H103.727V18.2073H105.504L108.028 24.908H108.106L110.74 18.2073H112.469V26.3883H111.192V20.124H111.114L108.652 26.3883H107.452L105.083 20.124H105.005V26.3883Z" fill="white"></path> <path d="M120.32 26.3883H119.042V18.2073H120.818L123.343 24.908H123.421L126.054 18.2073H127.784V26.3883H126.506V20.124H126.428L123.966 26.3883H122.766L120.398 20.124H120.32V26.3883Z" fill="white"></path> <path d="M133.6 26.5909C132.852 26.5909 132.198 26.4195 131.637 26.0767C131.076 25.7235 130.64 25.2248 130.328 24.5807C130.027 23.9262 129.876 23.1627 129.876 22.29C129.876 21.4174 130.027 20.659 130.328 20.0149C130.64 19.3708 131.076 18.8774 131.637 18.5346C132.198 18.1813 132.852 18.0047 133.6 18.0047C134.348 18.0047 135.003 18.1813 135.564 18.5346C136.125 18.8774 136.556 19.3708 136.857 20.0149C137.159 20.659 137.309 21.4174 137.309 22.29C137.309 23.1627 137.159 23.9262 136.857 24.5807C136.556 25.2248 136.125 25.7235 135.564 26.0767C135.003 26.4195 134.348 26.5909 133.6 26.5909ZM133.6 25.4222C134.317 25.4222 134.883 25.1469 135.299 24.5963C135.715 24.0353 135.922 23.2666 135.922 22.29C135.922 21.3239 135.715 20.5655 135.299 20.0149C134.883 19.454 134.317 19.1735 133.6 19.1735C132.873 19.1735 132.302 19.4488 131.886 19.9994C131.471 20.5499 131.263 21.3135 131.263 22.29C131.263 23.2666 131.471 24.0353 131.886 24.5963C132.302 25.1469 132.873 25.4222 133.6 25.4222Z" fill="white"></path> <path d="M140.734 26.3883H139.394V18.2073H144.723V19.376H140.734V26.3883Z" fill="white"></path> <path d="M151.397 18.2073H152.753L149.73 27.0896C149.512 27.7336 149.278 28.2271 149.029 28.5699C148.779 28.9127 148.478 29.1517 148.125 29.2867C147.772 29.4322 147.31 29.5049 146.738 29.5049H146.162V28.2894H146.785C147.263 28.2894 147.616 28.2011 147.845 28.0245C148.073 27.8583 148.281 27.5155 148.468 26.9961L148.592 26.6221L145.258 18.2073H146.676L149.185 24.7365H149.263L151.397 18.2073Z" fill="white"></path> <path d="M159.316 26.3883H157.975V18.2073H164.473V26.3883H163.133V19.376H159.316V26.3883Z" fill="white"></path> <path d="M170.282 26.5909C169.534 26.5909 168.879 26.4195 168.318 26.0767C167.757 25.7235 167.321 25.2248 167.009 24.5807C166.708 23.9262 166.557 23.1627 166.557 22.29C166.557 21.4174 166.708 20.659 167.009 20.0149C167.321 19.3708 167.757 18.8774 168.318 18.5346C168.879 18.1813 169.534 18.0047 170.282 18.0047C171.03 18.0047 171.684 18.1813 172.245 18.5346C172.806 18.8774 173.237 19.3708 173.538 20.0149C173.84 20.659 173.99 21.4174 173.99 22.29C173.99 23.1627 173.84 23.9262 173.538 24.5807C173.237 25.2248 172.806 25.7235 172.245 26.0767C171.684 26.4195 171.03 26.5909 170.282 26.5909ZM170.282 25.4222C170.998 25.4222 171.565 25.1469 171.98 24.5963C172.396 24.0353 172.603 23.2666 172.603 22.29C172.603 21.3239 172.396 20.5655 171.98 20.0149C171.565 19.454 170.998 19.1735 170.282 19.1735C169.554 19.1735 168.983 19.4488 168.568 19.9994C168.152 20.5499 167.944 21.3135 167.944 22.29C167.944 23.2666 168.152 24.0353 168.568 24.5963C168.983 25.1469 169.554 25.4222 170.282 25.4222Z" fill="white"></path> <path d="M177.353 26.3883H176.075V18.2073H177.851L180.376 24.908H180.454L183.087 18.2073H184.817V26.3883H183.539V20.124H183.461L180.999 26.3883H179.799L177.431 20.124H177.353V26.3883Z" fill="white"></path> <path d="M190.633 26.5909C189.885 26.5909 189.231 26.4195 188.67 26.0767C188.109 25.7235 187.673 25.2248 187.361 24.5807C187.06 23.9262 186.909 23.1627 186.909 22.29C186.909 21.4174 187.06 20.659 187.361 20.0149C187.673 19.3708 188.109 18.8774 188.67 18.5346C189.231 18.1813 189.885 18.0047 190.633 18.0047C191.381 18.0047 192.036 18.1813 192.597 18.5346C193.158 18.8774 193.589 19.3708 193.89 20.0149C194.191 20.659 194.342 21.4174 194.342 22.29C194.342 23.1627 194.191 23.9262 193.89 24.5807C193.589 25.2248 193.158 25.7235 192.597 26.0767C192.036 26.4195 191.381 26.5909 190.633 26.5909ZM190.633 25.4222C191.35 25.4222 191.916 25.1469 192.332 24.5963C192.747 24.0353 192.955 23.2666 192.955 22.29C192.955 21.3239 192.747 20.5655 192.332 20.0149C191.916 19.454 191.35 19.1735 190.633 19.1735C189.906 19.1735 189.335 19.4488 188.919 19.9994C188.504 20.5499 188.296 21.3135 188.296 22.29C188.296 23.2666 188.504 24.0353 188.919 24.5963C189.335 25.1469 189.906 25.4222 190.633 25.4222Z" fill="white"></path> <path d="M200.899 23.3497C200.629 23.4639 200.322 23.5522 199.98 23.6146C199.637 23.6769 199.304 23.7081 198.982 23.7081C198.058 23.7081 197.33 23.4484 196.801 22.9289C196.281 22.4095 196.021 21.6823 196.021 20.7473V18.2073H197.362V20.7473C197.362 21.3395 197.507 21.7862 197.798 22.0875C198.099 22.3887 198.53 22.5394 199.091 22.5394C199.372 22.5394 199.678 22.5082 200.011 22.4459C200.343 22.3731 200.639 22.2796 200.899 22.1654V18.2073H202.239V26.3883H200.899V23.3497Z" fill="white"></path> <path d="M207.861 20.7162C208.817 20.7162 209.575 20.9707 210.136 21.4797C210.707 21.9888 210.993 22.6796 210.993 23.5522C210.993 24.4249 210.707 25.1157 210.136 25.6248C209.575 26.1338 208.817 26.3883 207.861 26.3883H204.807V18.2073H206.147V20.7162H207.861ZM207.861 25.2196C208.412 25.2196 208.843 25.069 209.154 24.7677C209.476 24.4664 209.637 24.0613 209.637 23.5522C209.637 23.0432 209.476 22.638 209.154 22.3368C208.843 22.0355 208.412 21.8849 207.861 21.8849H206.147V25.2196H207.861Z" fill="white"></path> <path d="M214.612 22.664C214.612 22.2381 214.684 21.8693 214.83 21.5576C214.975 21.2356 215.152 20.9707 215.36 20.7629C215.567 20.5448 215.843 20.3058 216.185 20.0461C216.622 19.7033 216.944 19.3968 217.152 19.1267C217.37 18.8462 217.479 18.4982 217.479 18.0827C217.479 17.5528 217.307 17.1425 216.965 16.8516C216.632 16.5503 216.18 16.3997 215.609 16.3997C215.069 16.3997 214.612 16.54 214.238 16.8204C213.864 17.0905 213.604 17.4905 213.458 18.0203H212.04C212.259 17.1373 212.669 16.4465 213.271 15.9478C213.884 15.4492 214.664 15.1998 215.609 15.1998C216.606 15.1998 217.401 15.4543 217.993 15.9634C218.596 16.462 218.897 17.1373 218.897 17.9892C218.897 18.4463 218.819 18.841 218.663 19.1735C218.507 19.5059 218.32 19.7812 218.102 19.9994C217.884 20.2175 217.598 20.4616 217.245 20.7317C216.798 21.0746 216.466 21.381 216.248 21.6511C216.04 21.9108 215.936 22.2485 215.936 22.664V23.2094H214.612V22.664ZM215.282 26.513C214.991 26.513 214.757 26.4247 214.58 26.2481C214.404 26.0715 214.316 25.8377 214.316 25.5468C214.316 25.256 214.404 25.0222 214.58 24.8456C214.757 24.669 214.991 24.5807 215.282 24.5807C215.573 24.5807 215.806 24.669 215.983 24.8456C216.159 25.0222 216.248 25.256 216.248 25.5468C216.248 25.8377 216.159 26.0715 215.983 26.2481C215.806 26.4247 215.573 26.513 215.282 26.513Z" fill="white"></path> <path d="M233.38 29.9543V29.067L236.022 26.3749C236.257 26.1329 236.432 25.9379 236.546 25.79C236.667 25.6422 236.762 25.4842 236.829 25.3161C236.903 25.1481 236.94 24.9565 236.94 24.7414C236.94 24.3515 236.825 24.0457 236.597 23.8239C236.368 23.602 236.052 23.4911 235.649 23.4911C235.273 23.4911 234.96 23.5953 234.711 23.8037C234.463 24.0121 234.301 24.3112 234.227 24.7011H233.31C233.431 24.0759 233.69 23.5886 234.086 23.239C234.49 22.8895 235.014 22.7147 235.659 22.7147C236.103 22.7147 236.489 22.8021 236.819 22.9769C237.155 23.1449 237.41 23.3836 237.585 23.6928C237.767 23.9953 237.857 24.3448 237.857 24.7414C237.857 25.0439 237.803 25.3195 237.696 25.5682C237.595 25.8102 237.461 26.032 237.293 26.2337C237.131 26.4354 236.893 26.6975 236.577 27.0202L234.53 29.0973V29.1477L237.978 29.1074V29.9543H233.38Z" fill="white"></path> <path d="M241.664 30.0854C241.026 30.0854 240.491 29.9308 240.061 29.6216C239.631 29.3124 239.342 28.899 239.194 28.3814H240.112C240.381 28.9998 240.898 29.309 241.664 29.309C242.122 29.309 242.478 29.1914 242.733 28.9561C242.995 28.7141 243.127 28.3847 243.127 27.968C243.127 27.5781 243.012 27.2689 242.784 27.0403C242.562 26.8051 242.259 26.6874 241.876 26.6874H240.918V25.911H241.695C242.085 25.911 242.39 25.8069 242.612 25.5985C242.834 25.3901 242.945 25.0977 242.945 24.7212C242.945 24.3448 242.831 24.0457 242.602 23.8239C242.374 23.602 242.061 23.4911 241.664 23.4911C241.033 23.4911 240.589 23.7768 240.334 24.3482H239.416C239.577 23.8373 239.85 23.4373 240.233 23.1483C240.616 22.8592 241.096 22.7147 241.675 22.7147C242.118 22.7147 242.505 22.7954 242.834 22.9567C243.163 23.118 243.416 23.3432 243.59 23.6323C243.772 23.9213 243.863 24.2574 243.863 24.6406C243.863 25.3733 243.506 25.8942 242.794 26.2034V26.2539C243.177 26.3749 243.479 26.5866 243.701 26.8891C243.93 27.1916 244.044 27.5613 244.044 27.9982C244.044 28.415 243.947 28.7813 243.752 29.0973C243.557 29.4065 243.281 29.6485 242.925 29.8233C242.569 29.998 242.148 30.0854 241.664 30.0854Z" fill="white"></path> <path d="M246.409 29.3292C246.221 29.3292 246.069 29.2721 245.955 29.1578C245.841 29.0435 245.784 28.8923 245.784 28.704C245.784 28.5158 245.841 28.3646 245.955 28.2503C246.069 28.136 246.221 28.0789 246.409 28.0789C246.597 28.0789 246.748 28.136 246.863 28.2503C246.977 28.3646 247.034 28.5158 247.034 28.704C247.034 28.8923 246.977 29.0435 246.863 29.1578C246.748 29.2721 246.597 29.3292 246.409 29.3292ZM246.409 25.2556C246.221 25.2556 246.069 25.1985 245.955 25.0842C245.841 24.97 245.784 24.8187 245.784 24.6305C245.784 24.4423 245.841 24.291 245.955 24.1768C246.069 24.0625 246.221 24.0053 246.409 24.0053C246.597 24.0053 246.748 24.0625 246.863 24.1768C246.977 24.291 247.034 24.4423 247.034 24.6305C247.034 24.8187 246.977 24.97 246.863 25.0842C246.748 25.1985 246.597 25.2556 246.409 25.2556Z" fill="white"></path> <path d="M248.707 23.9146L250.351 22.8458H251.218V29.9543H250.361V23.7634L248.707 24.8523V23.9146Z" fill="white"></path> <path d="M256.237 30.0854C255.699 30.0854 255.235 29.9375 254.845 29.6418C254.455 29.346 254.156 28.9225 253.948 28.3713C253.746 27.8201 253.645 27.1647 253.645 26.4051C253.645 25.6455 253.746 24.9901 253.948 24.4389C254.156 23.881 254.455 23.4541 254.845 23.1584C255.235 22.8626 255.699 22.7147 256.237 22.7147C256.775 22.7147 257.238 22.8626 257.628 23.1584C258.018 23.4541 258.314 23.881 258.516 24.4389C258.724 24.9901 258.828 25.6455 258.828 26.4051C258.828 27.1647 258.724 27.8201 258.516 28.3713C258.314 28.9225 258.018 29.346 257.628 29.6418C257.238 29.9375 256.775 30.0854 256.237 30.0854ZM256.237 29.309C256.775 29.309 257.188 29.0569 257.477 28.5528C257.766 28.0486 257.911 27.3327 257.911 26.4051C257.911 25.4775 257.766 24.7616 257.477 24.2574C257.188 23.7466 256.775 23.4911 256.237 23.4911C255.699 23.4911 255.286 23.7466 254.997 24.2574C254.708 24.7616 254.563 25.4775 254.563 26.4051C254.563 27.3327 254.708 28.0486 254.997 28.5528C255.286 29.0569 255.699 29.309 256.237 29.309Z" fill="white"></path> <rect x="0.5" y="0.5" width="280" height="42" rx="21" stroke="#535353"></rect> </svg> 