<?xml version="1.0" encoding="UTF-8"?> <svg xmlns="http://www.w3.org/2000/svg" width="454" height="40" viewBox="0 0 454 40" fill="none"> <path d="M0 19.1634C0 10.1277 0 5.60986 2.80864 2.80933C5.61728 0.00880668 10.1252 0 19.1586 0H20.8227C29.8561 0 34.3376 0 37.1815 2.80933C40.0254 5.61867 39.9901 10.1277 39.9901 19.1634V20.8278C39.9901 29.8635 39.9901 34.3813 37.1815 37.1906C34.3729 40 29.8561 40 20.8227 40H19.1586C10.1252 40 5.60848 40 2.80864 37.1906C0.00880451 34.3813 0 29.8635 0 20.8278V19.1634Z" fill="#0077FF"></path> <path d="M39.9901 20.8278V18.8463L21.1309 0H19.1586C10.1252 0 5.60848 0 2.80864 2.80933C0.00880451 5.61867 0 10.1277 0 19.1633V21.136L18.8417 39.9824H20.8227C29.8561 39.9824 34.3728 39.9824 37.1815 37.173C39.9901 34.3637 39.9901 29.8635 39.9901 20.8278Z" fill="#00D3E6"></path> <path d="M25.9293 25.5397L23.0414 22.6599C23.6605 22.0745 24.156 21.3709 24.4986 20.5908C24.8412 19.8106 25.024 18.9696 25.0362 18.1176C25.0484 17.2655 24.8897 16.4197 24.5695 15.63C24.2493 14.8404 23.7741 14.1229 23.172 13.5201C22.5699 12.9172 21.8531 12.4412 21.064 12.1202C20.2748 11.7991 19.4293 11.6396 18.5775 11.6509C17.7256 11.6623 16.8847 11.8443 16.1044 12.1863C15.3241 12.5282 14.6202 13.0232 14.0344 13.6418L11.1553 10.762C13.1327 8.89302 15.7608 7.86893 18.4811 7.90742C21.2014 7.9459 23.7995 9.04393 25.7232 10.9681C27.647 12.8924 28.7447 15.4911 28.7832 18.2121C28.8217 20.9331 27.7978 23.5618 25.9293 25.5397Z" fill="white"></path> <path d="M21.4485 31.5106C19.3846 31.5042 17.3688 30.8867 15.6553 29.736C13.9417 28.5852 12.6072 26.9528 11.8199 25.0445C11.0327 23.1361 10.828 21.0374 11.2316 19.0128C11.6352 16.9882 12.6291 15.1285 14.0879 13.6682L16.967 16.548C15.9302 17.7681 15.3903 19.3337 15.4547 20.9337C15.519 22.5337 16.1829 24.0509 17.3143 25.1837C18.4458 26.3166 19.9619 26.9821 21.5615 27.048C23.161 27.114 24.7268 26.5755 25.9476 25.5396L28.8355 28.4194C27.8701 29.3982 26.72 30.1755 25.452 30.7061C24.1839 31.2367 22.8231 31.5102 21.4485 31.5106Z" fill="white"></path> <path d="M65.3359 29.9999H60.3261L53.1978 9.81733H56.8907L62.5877 26.4501H63.1602L69.0575 9.81733H72.6933L65.3359 29.9999Z" fill="white"></path> <path d="M82.2312 19.5508L91.5066 29.9999H86.9835L79.4257 21.3543H78.5669V29.9999H75.1316V9.81733H78.5669V18.0335H79.3971L86.554 9.81733H90.791L82.2312 19.5508Z" fill="white"></path> <path d="M108.61 30.2862C106.701 30.2862 104.993 29.8472 103.485 28.9693C101.977 28.0723 100.794 26.8413 99.9353 25.2763C99.0955 23.6923 98.6757 21.8983 98.6757 19.8943C98.6757 17.9094 99.0955 16.1345 99.9353 14.5695C100.794 12.9855 101.977 11.7545 103.485 10.8766C104.993 9.97955 106.701 9.53105 108.61 9.53105C110.69 9.53105 112.532 10.0559 114.135 11.1056C115.738 12.1362 116.883 13.558 117.57 15.3711L114.163 15.9437C113.686 14.9131 112.961 14.1115 111.988 13.5389C111.033 12.9664 109.945 12.6801 108.724 12.6801C107.464 12.6801 106.338 12.9855 105.346 13.5962C104.373 14.2069 103.609 15.0562 103.056 16.1441C102.521 17.2319 102.254 18.482 102.254 19.8943C102.254 21.3066 102.521 22.5662 103.056 23.6732C103.609 24.761 104.373 25.6103 105.346 26.221C106.338 26.8318 107.464 27.1371 108.724 27.1371C109.965 27.1371 111.081 26.8413 112.073 26.2497C113.066 25.639 113.81 24.7992 114.306 23.7304L117.713 24.303C116.988 26.1352 115.805 27.5952 114.163 28.683C112.541 29.7518 110.69 30.2862 108.61 30.2862Z" fill="white"></path> <path d="M125.742 30.2862C124.693 30.2862 123.738 30.019 122.88 29.4846C122.04 28.9502 121.372 28.2155 120.876 27.2803C120.398 26.3451 120.16 25.2859 120.16 24.1026V15.1135H123.452V23.7304C123.452 24.7992 123.748 25.6676 124.34 26.3356C124.95 27.0035 125.723 27.3375 126.658 27.3375C127.613 27.3375 128.405 27.0035 129.035 26.3356C129.664 25.6485 129.979 24.7801 129.979 23.7304V15.1135H133.271V29.9999H130.809L130.151 27.7669C129.674 28.5494 129.044 29.1697 128.262 29.6278C127.479 30.0667 126.639 30.2862 125.742 30.2862Z" fill="white"></path> <path d="M142.347 30.2862C140.667 30.2862 139.264 29.8949 138.138 29.1125C137.031 28.3109 136.316 27.2135 135.991 25.8203L139.169 25.2763C139.417 25.9825 139.837 26.5264 140.429 26.9081C141.039 27.2898 141.765 27.4807 142.604 27.4807C143.33 27.4807 143.94 27.3471 144.437 27.0799C144.933 26.8127 145.181 26.4024 145.181 25.8489C145.181 25.3336 144.923 24.9423 144.408 24.6751C143.893 24.3889 143.101 24.1026 142.032 23.8163C140.963 23.511 140.076 23.2056 139.369 22.9002C138.663 22.5949 138.053 22.1464 137.537 21.5547C137.041 20.9631 136.793 20.1806 136.793 19.2072C136.793 17.7949 137.337 16.7166 138.425 15.9723C139.513 15.2089 140.868 14.8272 142.49 14.8272C143.959 14.8272 145.229 15.2089 146.297 15.9723C147.366 16.7166 148.11 17.7472 148.53 19.0641L145.467 19.5794C145.2 18.9496 144.809 18.4725 144.293 18.148C143.797 17.8045 143.206 17.6327 142.518 17.6327C141.87 17.6327 141.316 17.7663 140.858 18.0335C140.419 18.3007 140.2 18.6633 140.2 19.1214C140.2 19.6557 140.467 20.0756 141.001 20.381C141.536 20.6673 142.356 20.9631 143.463 21.2684C144.494 21.5547 145.353 21.8601 146.04 22.1845C146.746 22.4899 147.337 22.9384 147.815 23.53C148.311 24.1026 148.559 24.8469 148.559 25.763C148.559 26.6028 148.33 27.3662 147.872 28.0532C147.414 28.7212 146.717 29.2651 145.782 29.685C144.866 30.0858 143.721 30.2862 142.347 30.2862Z" fill="white"></path> <path d="M160.433 27.1371L160.147 29.9999H157.37C155.748 29.9999 154.517 29.6182 153.677 28.8548C152.837 28.0723 152.418 26.9463 152.418 25.4767V17.9762H149.984V15.1135H152.418L153.248 10.8193H155.71V15.1135H160.147V17.9762H155.71V25.4767C155.71 26.5837 156.263 27.1371 157.37 27.1371H160.433Z" fill="white"></path> <path d="M169.841 30.2862C168.314 30.2862 166.94 29.9617 165.719 29.3128C164.516 28.6449 163.572 27.7288 162.885 26.5646C162.217 25.3813 161.883 24.0453 161.883 22.5567C161.883 21.068 162.217 19.7416 162.885 18.5774C163.572 17.3941 164.516 16.4781 165.719 15.8292C166.94 15.1612 168.314 14.8272 169.841 14.8272C171.368 14.8272 172.733 15.1612 173.935 15.8292C175.156 16.4781 176.101 17.3941 176.769 18.5774C177.456 19.7416 177.8 21.068 177.8 22.5567C177.8 24.0453 177.456 25.3813 176.769 26.5646C176.101 27.7288 175.156 28.6449 173.935 29.3128C172.733 29.9617 171.368 30.2862 169.841 30.2862ZM169.841 27.2803C171.177 27.2803 172.265 26.8509 173.105 25.992C173.945 25.1141 174.364 23.969 174.364 22.5567C174.364 21.1444 173.945 20.0088 173.105 19.15C172.265 18.2721 171.177 17.8331 169.841 17.8331C168.505 17.8331 167.417 18.2721 166.578 19.15C165.738 20.0088 165.318 21.1444 165.318 22.5567C165.318 23.969 165.738 25.1141 166.578 25.992C167.417 26.8509 168.505 27.2803 169.841 27.2803Z" fill="white"></path> <path d="M180.662 29.9999V15.1135H183.124L183.725 17.2319C184.126 16.5258 184.679 15.9532 185.385 15.5143C186.092 15.0562 186.941 14.8272 187.933 14.8272C188.926 14.8272 189.813 15.0658 190.596 15.5429C191.378 16.02 191.96 16.6785 192.342 17.5182C192.705 16.7739 193.277 16.1441 194.06 15.6288C194.861 15.0944 195.806 14.8272 196.894 14.8272C197.924 14.8272 198.84 15.0944 199.642 15.6288C200.463 16.1441 201.093 16.8693 201.531 17.8045C201.99 18.7206 202.219 19.7703 202.219 20.9535V29.9999H198.926V21.2684C198.926 20.2378 198.659 19.3981 198.125 18.7492C197.59 18.1003 196.894 17.7759 196.035 17.7759C195.176 17.7759 194.47 18.1098 193.916 18.7778C193.363 19.4267 193.086 20.2569 193.086 21.2684V29.9999H189.794V21.2684C189.794 20.2378 189.527 19.3981 188.993 18.7492C188.458 18.1003 187.762 17.7759 186.903 17.7759C186.044 17.7759 185.338 18.1098 184.784 18.7778C184.231 19.4267 183.954 20.2569 183.954 21.2684V29.9999H180.662Z" fill="white"></path> <path d="M220.395 22.3849C220.395 22.6712 220.376 23.0243 220.338 23.4442H208.372C208.524 24.6083 209.001 25.5435 209.803 26.2497C210.604 26.9367 211.626 27.2803 212.866 27.2803C213.706 27.2803 214.46 27.1181 215.128 26.7936C215.815 26.4692 216.34 26.0302 216.702 25.4767L219.794 25.992C219.26 27.3662 218.334 28.4254 217.017 29.1697C215.719 29.914 214.269 30.2862 212.666 30.2862C211.177 30.2862 209.841 29.9617 208.658 29.3128C207.494 28.6449 206.578 27.7288 205.91 26.5646C205.261 25.3813 204.936 24.0453 204.936 22.5567C204.936 21.068 205.261 19.7416 205.91 18.5774C206.578 17.3941 207.494 16.4781 208.658 15.8292C209.841 15.1612 211.177 14.8272 212.666 14.8272C214.154 14.8272 215.481 15.1612 216.645 15.8292C217.828 16.4781 218.744 17.3846 219.393 18.5488C220.061 19.6939 220.395 20.9726 220.395 22.3849ZM212.666 17.69C211.673 17.69 210.805 17.9762 210.061 18.5488C209.335 19.1214 208.839 19.8943 208.572 20.8677H216.817C216.53 19.9134 216.015 19.15 215.271 18.5774C214.546 17.9858 213.677 17.69 212.666 17.69Z" fill="white"></path> <path d="M222.96 29.9999V15.1135H225.422L226.052 17.2606C226.529 16.4781 227.092 15.9246 227.741 15.6001C228.409 15.2757 229.211 15.1135 230.146 15.1135H230.776L231.062 18.2625H229.173C227.226 18.2625 226.253 19.2454 226.253 21.2112V29.9999H222.96Z" fill="white"></path> <path d="M253.001 29.9999H239.518V9.81733H252.715V12.9664H242.953V18.3198H251.799V21.3257H242.953V26.8509H253.001V29.9999Z" fill="white"></path> <path d="M258.371 29.9999H254.65L259.373 22.3849L255.194 15.1135H258.915L261.692 20.1233H262.236L265.156 15.1135H268.792L264.612 22.1845L269.336 29.9999H265.5L262.322 24.3602H261.778L258.371 29.9999Z" fill="white"></path> <path d="M271.27 35.8686V15.1135H273.732L274.419 17.5182C275.03 16.7739 275.812 16.1441 276.766 15.6288C277.721 15.0944 278.818 14.8272 280.059 14.8272C281.452 14.8272 282.702 15.1612 283.809 15.8292C284.916 16.4781 285.775 17.3941 286.385 18.5774C287.015 19.7416 287.33 21.068 287.33 22.5567C287.33 24.0453 287.015 25.3813 286.385 26.5646C285.775 27.7288 284.916 28.6449 283.809 29.3128C282.702 29.9617 281.452 30.2862 280.059 30.2862C278.856 30.2862 277.787 30.0476 276.852 29.5705C275.917 29.0743 275.154 28.4636 274.562 27.7383V35.8686H271.27ZM279.257 27.3375C280.631 27.3375 281.748 26.8986 282.606 26.0207C283.465 25.1237 283.895 23.969 283.895 22.5567C283.895 21.1444 283.465 19.9993 282.606 19.1214C281.748 18.2244 280.631 17.7759 279.257 17.7759C277.864 17.7759 276.728 18.2244 275.85 19.1214C274.992 19.9993 274.562 21.1444 274.562 22.5567C274.562 23.969 274.992 25.1237 275.85 26.0207C276.728 26.8986 277.864 27.3375 279.257 27.3375Z" fill="white"></path> <path d="M304.797 22.3849C304.797 22.6712 304.778 23.0243 304.74 23.4442H292.773C292.926 24.6083 293.403 25.5435 294.205 26.2497C295.006 26.9367 296.027 27.2803 297.268 27.2803C298.107 27.2803 298.861 27.1181 299.529 26.7936C300.216 26.4692 300.741 26.0302 301.104 25.4767L304.196 25.992C303.661 27.3662 302.736 28.4254 301.419 29.1697C300.121 29.914 298.67 30.2862 297.067 30.2862C295.579 30.2862 294.243 29.9617 293.059 29.3128C291.895 28.6449 290.979 27.7288 290.311 26.5646C289.662 25.3813 289.338 24.0453 289.338 22.5567C289.338 21.068 289.662 19.7416 290.311 18.5774C290.979 17.3941 291.895 16.4781 293.059 15.8292C294.243 15.1612 295.579 14.8272 297.067 14.8272C298.556 14.8272 299.882 15.1612 301.047 15.8292C302.23 16.4781 303.146 17.3846 303.795 18.5488C304.463 19.6939 304.797 20.9726 304.797 22.3849ZM297.067 17.69C296.075 17.69 295.207 17.9762 294.462 18.5488C293.737 19.1214 293.241 19.8943 292.974 20.8677H301.218C300.932 19.9134 300.417 19.15 299.672 18.5774C298.947 17.9858 298.079 17.69 297.067 17.69Z" fill="white"></path> <path d="M307.362 29.9999V15.1135H309.824L310.454 17.2606C310.931 16.4781 311.494 15.9246 312.143 15.6001C312.811 15.2757 313.613 15.1135 314.548 15.1135H315.178L315.464 18.2625H313.574C311.628 18.2625 310.654 19.2454 310.654 21.2112V29.9999H307.362Z" fill="white"></path> <path d="M321.058 29.9999H317.765V15.1135H321.058V29.9999ZM319.426 12.995C318.815 12.995 318.319 12.8137 317.937 12.4511C317.555 12.0694 317.365 11.5827 317.365 10.9911C317.365 10.3994 317.555 9.91275 317.937 9.53105C318.338 9.14935 318.834 8.9585 319.426 8.9585C320.017 8.9585 320.504 9.14935 320.886 9.53105C321.268 9.91275 321.458 10.3994 321.458 10.9911C321.458 11.5827 321.268 12.0694 320.886 12.4511C320.504 12.8137 320.017 12.995 319.426 12.995Z" fill="white"></path> <path d="M339.519 22.3849C339.519 22.6712 339.5 23.0243 339.462 23.4442H327.496C327.648 24.6083 328.125 25.5435 328.927 26.2497C329.728 26.9367 330.75 27.2803 331.99 27.2803C332.83 27.2803 333.584 27.1181 334.252 26.7936C334.939 26.4692 335.464 26.0302 335.826 25.4767L338.918 25.992C338.384 27.3662 337.458 28.4254 336.141 29.1697C334.843 29.914 333.393 30.2862 331.79 30.2862C330.301 30.2862 328.965 29.9617 327.782 29.3128C326.618 28.6449 325.702 27.7288 325.034 26.5646C324.385 25.3813 324.06 24.0453 324.06 22.5567C324.06 21.068 324.385 19.7416 325.034 18.5774C325.702 17.3941 326.618 16.4781 327.782 15.8292C328.965 15.1612 330.301 14.8272 331.79 14.8272C333.278 14.8272 334.605 15.1612 335.769 15.8292C336.952 16.4781 337.868 17.3846 338.517 18.5488C339.185 19.6939 339.519 20.9726 339.519 22.3849ZM331.79 17.69C330.797 17.69 329.929 17.9762 329.185 18.5488C328.459 19.1214 327.963 19.8943 327.696 20.8677H335.941C335.654 19.9134 335.139 19.15 334.395 18.5774C333.67 17.9858 332.801 17.69 331.79 17.69Z" fill="white"></path> <path d="M342.085 29.9999V15.1135H344.546L345.205 17.3464C345.682 16.5639 346.312 15.9532 347.094 15.5143C347.896 15.0562 348.755 14.8272 349.671 14.8272C350.74 14.8272 351.703 15.0944 352.562 15.6288C353.421 16.1632 354.099 16.8979 354.595 17.8331C355.091 18.7683 355.339 19.8275 355.339 21.0108V29.9999H352.047V21.383C352.047 20.3142 351.742 19.4458 351.131 18.7778C350.52 18.1098 349.738 17.7759 348.783 17.7759C347.791 17.7759 346.97 18.1194 346.321 18.8065C345.692 19.4744 345.377 20.3333 345.377 21.383V29.9999H342.085Z" fill="white"></path> <path d="M365.814 30.2862C364.325 30.2862 362.989 29.9617 361.806 29.3128C360.623 28.6449 359.697 27.7288 359.029 26.5646C358.38 25.3813 358.056 24.0453 358.056 22.5567C358.056 21.068 358.38 19.7416 359.029 18.5774C359.697 17.3941 360.623 16.4781 361.806 15.8292C362.989 15.1612 364.325 14.8272 365.814 14.8272C367.455 14.8272 368.906 15.2375 370.165 16.0582C371.444 16.8598 372.35 18.0049 372.885 19.4935L369.793 20.0088C369.469 19.3599 368.963 18.8351 368.276 18.4343C367.608 18.0335 366.854 17.8331 366.014 17.8331C364.678 17.8331 363.59 18.2721 362.751 19.15C361.911 20.0279 361.491 21.1635 361.491 22.5567C361.491 23.9499 361.911 25.0855 362.751 25.9634C363.59 26.8413 364.678 27.2803 366.014 27.2803C366.892 27.2803 367.675 27.0799 368.362 26.6791C369.049 26.2592 369.564 25.7153 369.908 25.0473L372.999 25.5626C372.465 27.0703 371.539 28.2345 370.222 29.0552C368.906 29.8759 367.436 30.2862 365.814 30.2862Z" fill="white"></path> <path d="M389.897 22.3849C389.897 22.6712 389.878 23.0243 389.84 23.4442H377.874C378.026 24.6083 378.504 25.5435 379.305 26.2497C380.107 26.9367 381.128 27.2803 382.368 27.2803C383.208 27.2803 383.962 27.1181 384.63 26.7936C385.317 26.4692 385.842 26.0302 386.204 25.4767L389.296 25.992C388.762 27.3662 387.836 28.4254 386.519 29.1697C385.221 29.914 383.771 30.2862 382.168 30.2862C380.679 30.2862 379.343 29.9617 378.16 29.3128C376.996 28.6449 376.08 27.7288 375.412 26.5646C374.763 25.3813 374.438 24.0453 374.438 22.5567C374.438 21.068 374.763 19.7416 375.412 18.5774C376.08 17.3941 376.996 16.4781 378.16 15.8292C379.343 15.1612 380.679 14.8272 382.168 14.8272C383.656 14.8272 384.983 15.1612 386.147 15.8292C387.33 16.4781 388.246 17.3846 388.895 18.5488C389.563 19.6939 389.897 20.9726 389.897 22.3849ZM382.168 17.69C381.175 17.69 380.307 17.9762 379.563 18.5488C378.837 19.1214 378.341 19.8943 378.074 20.8677H386.319C386.033 19.9134 385.517 19.15 384.773 18.5774C384.048 17.9858 383.179 17.69 382.168 17.69Z" fill="white"></path> <path d="M412.652 18.2339V9.81733H416.087V29.9999H412.652V21.383H403.062V29.9999H399.626V9.81733H403.062V18.2339H412.652Z" fill="white"></path> <path d="M425.523 30.2862C424.474 30.2862 423.519 30.019 422.661 29.4846C421.821 28.9502 421.153 28.2155 420.657 27.2803C420.179 26.3451 419.941 25.2859 419.941 24.1026V15.1135H423.233V23.7304C423.233 24.7992 423.529 25.6676 424.121 26.3356C424.731 27.0035 425.504 27.3375 426.439 27.3375C427.394 27.3375 428.186 27.0035 428.815 26.3356C429.445 25.6485 429.76 24.7801 429.76 23.7304V15.1135H433.052V29.9999H430.59L429.932 27.7669C429.455 28.5494 428.825 29.1697 428.043 29.6278C427.26 30.0667 426.42 30.2862 425.523 30.2862Z" fill="white"></path> <path d="M445.706 30.2862C444.466 30.2862 443.368 30.0285 442.414 29.5132C441.46 28.9789 440.677 28.3395 440.066 27.5952L439.379 29.9999H436.917V9.81733H440.21V17.3751C440.801 16.6498 441.565 16.0486 442.5 15.5715C443.435 15.0753 444.504 14.8272 445.706 14.8272C447.099 14.8272 448.349 15.1612 449.456 15.8292C450.563 16.4781 451.422 17.3941 452.033 18.5774C452.663 19.7416 452.978 21.068 452.978 22.5567C452.978 24.0453 452.663 25.3813 452.033 26.5646C451.422 27.7288 450.563 28.6449 449.456 29.3128C448.349 29.9617 447.099 30.2862 445.706 30.2862ZM444.905 27.3375C446.279 27.3375 447.395 26.8986 448.254 26.0207C449.113 25.1237 449.542 23.969 449.542 22.5567C449.542 21.1444 449.113 19.9993 448.254 19.1214C447.395 18.2244 446.279 17.7759 444.905 17.7759C443.511 17.7759 442.376 18.2244 441.498 19.1214C440.639 19.9993 440.21 21.1444 440.21 22.5567C440.21 23.969 440.639 25.1237 441.498 26.0207C442.376 26.8986 443.511 27.3375 444.905 27.3375Z" fill="white"></path> </svg> 