<svg fill="none" height="136" viewBox="0 0 339 136" width="339" xmlns="http://www.w3.org/2000/svg"><g fill="#fff"><path d="m9.12005 38.416c1.21605-9.5254 5.32005-16.9227 12.31205-22.192 7.0933-5.3707 15.6053-8.05603 25.536-8.05603 10.8426 0 19.5066 2.83733 25.992 8.51203 6.5866 5.5733 9.88 12.616 9.88 21.128 0 5.8773-1.6214 10.792-4.864 14.744-3.1414 3.952-6.7894 6.7386-10.944 8.36 4.864 1.1146 9.3226 3.8506 13.376 8.208 4.1546 4.3573 6.232 10.184 6.232 17.48 0 9.2213-3.648 16.923-10.944 23.104-7.1947 6.08-16.3654 9.12-27.512 9.12-10.944 0-20.1654-2.787-27.664-8.36-7.3974-5.573-11.60271-13.224-12.61605-22.952h17.93605c.912 4.56 3.344 8.2586 7.296 11.096 4.0533 2.837 9.0693 4.256 15.048 4.256 5.8773 0 10.6906-1.571 14.44-4.712 3.8506-3.1414 5.776-7.2454 5.776-12.312 0-5.2694-1.976-9.2214-5.928-11.856-3.952-2.736-9.0187-4.104-15.2-4.104h-12.616v-15.504h11.248c5.776 0 10.336-1.4187 13.68-4.256 3.344-2.8374 5.016-6.4854 5.016-10.944 0-4.4587-1.6214-8.056-4.864-10.792-3.1414-2.8374-7.4987-4.256-13.072-4.256-5.3707 0-9.7787 1.3173-13.224 3.952-3.4454 2.5333-5.6747 5.9786-6.688 10.336z"/><path d="m114.163 23.52c7.498-10.2347 17.682-15.35203 30.552-15.35203 12.869 0 23.053 5.11733 30.552 15.35203 7.498 10.1333 11.248 23.4586 11.248 39.976 0 16.5173-3.75 29.8933-11.248 40.128-7.499 10.133-17.683 15.2-30.552 15.2-12.87 0-23.054-5.067-30.552-15.2-7.499-10.2347-11.248-23.6107-11.248-40.128 0-16.5174 3.749-29.8427 11.248-39.976zm30.552 79.192c7.6 0 13.426-3.648 17.48-10.944 4.053-7.296 6.08-16.72 6.08-28.272s-2.027-20.976-6.08-28.272c-4.054-7.296-9.88-10.944-17.48-10.944-7.499 0-13.326 3.648-17.48 10.944-4.054 7.296-6.08 16.72-6.08 28.272s2.026 20.976 6.08 28.272c4.154 7.296 9.981 10.944 17.48 10.944z"/><path d="m217.239 117 76.456-107.00804h17.024l-76.304 107.00804zm18.696-91.352c-2.128-2.8374-5.016-4.256-8.664-4.256s-6.536 1.4186-8.664 4.256c-2.128 2.736-3.192 6.232-3.192 10.488s1.064 7.8026 3.192 10.64c2.128 2.8373 5.016 4.256 8.664 4.256s6.536-1.4187 8.664-4.256c2.128-2.8374 3.192-6.384 3.192-10.64s-1.064-7.752-3.192-10.488zm-35.264 10.488c0-8.0054 2.483-14.6427 7.448-19.912 5.067-5.3707 11.451-8.05603 19.152-8.05603s14.035 2.68533 19 8.05603c5.067 5.2693 7.6 11.9066 7.6 19.912 0 8.1066-2.533 14.7946-7.6 20.064-4.965 5.2693-11.299 7.904-19 7.904s-14.085-2.6347-19.152-7.904c-4.965-5.2694-7.448-11.9574-7.448-20.064zm108.68 44.08c-2.128-2.8374-5.016-4.256-8.664-4.256s-6.536 1.4186-8.664 4.256c-2.128 2.8373-3.192 6.384-3.192 10.64s1.064 7.8026 3.192 10.64c2.128 2.736 5.016 4.104 8.664 4.104s6.536-1.368 8.664-4.104c2.128-2.8374 3.192-6.384 3.192-10.64s-1.064-7.8027-3.192-10.64zm-35.264 10.64c0-8.1067 2.483-14.7947 7.448-20.064 5.067-5.2694 11.451-7.904 19.152-7.904 7.803 0 14.187 2.6346 19.152 7.904 5.067 5.2693 7.6 11.9573 7.6 20.064 0 8.0053-2.533 14.693-7.6 20.064-4.965 5.269-11.349 7.904-19.152 7.904-7.701 0-14.085-2.635-19.152-7.904-4.965-5.371-7.448-12.0587-7.448-20.064z"/></g></svg>