<svg width="68" height="68" viewBox="0 0 68 68" fill="none" xmlns="http://www.w3.org/2000/svg">
<path d="M54.125 25.25H45.5V22.4C45.5 19.3765 44.2884 16.4769 42.1317 14.339C39.9751 12.2011 37.05 11 34 11C30.95 11 28.0249 12.2011 25.8683 14.339C23.7116 16.4769 22.5 19.3765 22.5 22.4V25.25H13.875C13.1125 25.25 12.3812 25.5503 11.8421 26.0847C11.3029 26.6192 11 27.3441 11 28.1V59.45C11 61.7176 11.9087 63.8923 13.5262 65.4958C15.1437 67.0992 17.3375 68 19.625 68H48.375C50.6625 68 52.8563 67.0992 54.4738 65.4958C56.0913 63.8923 57 61.7176 57 59.45V28.1C57 27.3441 56.6971 26.6192 56.1579 26.0847C55.6188 25.5503 54.8875 25.25 54.125 25.25ZM28.25 22.4C28.25 20.8883 28.8558 19.4384 29.9341 18.3695C31.0125 17.3005 32.475 16.7 34 16.7C35.525 16.7 36.9875 17.3005 38.0659 18.3695C39.1442 19.4384 39.75 20.8883 39.75 22.4V25.25H28.25V22.4ZM51.25 59.45C51.25 60.2059 50.9471 60.9308 50.4079 61.4653C49.8688 61.9997 49.1375 62.3 48.375 62.3H19.625C18.8625 62.3 18.1312 61.9997 17.5921 61.4653C17.0529 60.9308 16.75 60.2059 16.75 59.45V30.95H22.5V33.8C22.5 34.5559 22.8029 35.2808 23.3421 35.8153C23.8812 36.3497 24.6125 36.65 25.375 36.65C26.1375 36.65 26.8688 36.3497 27.4079 35.8153C27.9471 35.2808 28.25 34.5559 28.25 33.8V30.95H39.75V33.8C39.75 34.5559 40.0529 35.2808 40.5921 35.8153C41.1312 36.3497 41.8625 36.65 42.625 36.65C43.3875 36.65 44.1188 36.3497 44.6579 35.8153C45.1971 35.2808 45.5 34.5559 45.5 33.8V30.95H51.25V59.45Z" fill="url(#paint0_radial_11287_60527)"/>
<defs>
<radialGradient id="paint0_radial_11287_60527" cx="0" cy="0" r="1" gradientUnits="userSpaceOnUse" gradientTransform="translate(57 11) rotate(136.735) scale(56.3171 140.702)">
<stop stop-color="#FFCC00"/>
<stop offset="0.463542" stop-color="#FED73D"/>
<stop offset="1" stop-color="#FFBE18"/>
</radialGradient>
</defs>
</svg>
