<svg width="68" height="68" viewBox="0 0 68 68" fill="none" xmlns="http://www.w3.org/2000/svg">
<g clip-path="url(#clip0_11287_60528)">
<path d="M51.0667 11.0135C49.1667 9.07191 46.6467 8 43.9667 8H24.0333C21.3467 8 18.8333 9.07191 16.9333 11.0135C15.0467 12.9416 14 15.5169 14 18.2472V57.7528C14 60.4832 15.0467 63.0584 16.9333 64.9933C18.8267 66.9348 21.3467 68 24.0333 68H43.9733C46.6533 68 49.1733 66.9281 51.0667 64.9933C52.96 63.0584 54 60.4899 54 57.7528V18.2472C54 15.5169 52.9533 12.9416 51.0667 11.0067V11.0135ZM30.6667 14.5191H37.3333V14.6876H30.6667V14.5191ZM47.6 57.7528C47.6 58.7506 47.22 59.6876 46.5267 60.3955C45.84 61.0966 44.9333 61.4809 43.9667 61.4876H24.0333C23.0667 61.4876 22.1533 61.0966 21.4733 60.3955C20.7867 59.6876 20.4067 58.7506 20.4 57.7528V18.2539C20.4 17.2562 20.78 16.3124 21.4733 15.6112C22.16 14.9101 23.0667 14.5258 24.0333 14.5191H24.2667V17.9438C24.2667 18.8135 24.6 19.6292 25.2 20.2427C25.8067 20.8629 26.6133 21.2 27.4667 21.2H40.5333C41.3867 21.2 42.1933 20.8629 42.8 20.2427C43.4 19.6292 43.7333 18.8135 43.7333 17.9438V14.5191H43.9667C44.9333 14.5191 45.8467 14.9101 46.5267 15.6112C47.2133 16.3124 47.5933 17.2562 47.6 18.2539V57.7528Z" fill="url(#paint0_radial_11287_60528)"/>
<path d="M40.2204 52.5955H27.7804C26.9338 52.5955 26.1471 53.1214 25.7271 53.9641C25.3071 54.8 25.3071 55.845 25.7271 56.6809C26.1471 57.5236 26.9338 58.0494 27.7804 58.0494H40.2271C41.0738 58.0494 41.8604 57.5236 42.2804 56.6809C42.7004 55.845 42.7004 54.8 42.2804 53.9641C41.8604 53.1214 41.0738 52.5955 40.2271 52.5955H40.2204Z" fill="url(#paint1_radial_11287_60528)"/>
</g>
<defs>
<radialGradient id="paint0_radial_11287_60528" cx="0" cy="0" r="1" gradientUnits="userSpaceOnUse" gradientTransform="translate(54 8) rotate(131.273) scale(54.0597 134.167)">
<stop stop-color="#FFCC00"/>
<stop offset="0.463542" stop-color="#FED73D"/>
<stop offset="1" stop-color="#FFBE18"/>
</radialGradient>
<radialGradient id="paint1_radial_11287_60528" cx="0" cy="0" r="1" gradientUnits="userSpaceOnUse" gradientTransform="translate(42.5954 52.5955) rotate(166.445) scale(15.758 17.9731)">
<stop stop-color="#FFCC00"/>
<stop offset="0.463542" stop-color="#FED73D"/>
<stop offset="1" stop-color="#FFBE18"/>
</radialGradient>
<clipPath id="clip0_11287_60528">
<rect width="40" height="60" fill="white" transform="translate(14 8)"/>
</clipPath>
</defs>
</svg>
