<?xml version="1.0" encoding="UTF-8"?> <svg xmlns="http://www.w3.org/2000/svg" width="70" height="70" viewBox="0 0 70 70" fill="none"> <path d="M2.25231e-07 33.5359C1.19033e-07 17.7235 6.59338e-08 9.81727 4.91633 4.91635C9.83267 0.0154209 17.7235 9.24973e-06 33.5359 9.34836e-06L36.4487 9.36652e-06C52.2611 9.46514e-06 60.1057 9.51407e-06 65.0836 4.91635C70.0616 9.83268 70 17.7235 70 33.5359L70 36.4487C70 52.2611 70 60.1673 65.0836 65.0837C60.1673 70 52.2611 70 36.4487 70L33.5359 70C17.7235 70 9.81726 70 4.91633 65.0837C0.0154121 60.1673 3.50991e-07 52.2611 2.44793e-07 36.4487L2.25231e-07 33.5359Z" fill="#0077FF"></path> <path d="M32.857 46.1429C32.147 46.1429 31.5713 46.7185 31.5713 47.4286C31.5713 48.1387 32.147 48.7143 32.857 48.7143H37.1428C37.8528 48.7143 38.4285 48.1387 38.4285 47.4286C38.4285 46.7185 37.8528 46.1429 37.1428 46.1429H32.857Z" fill="white"></path> <path fill-rule="evenodd" clip-rule="evenodd" d="M20.4285 25.4C20.4285 21.5597 20.4285 19.6395 21.1759 18.1727C21.8333 16.8824 22.8823 15.8334 24.1725 15.176C25.6394 14.4286 27.5595 14.4286 31.3999 14.4286H38.5999C42.4403 14.4286 44.3604 14.4286 45.8273 15.176C47.1175 15.8334 48.1665 16.8824 48.8239 18.1727C49.5713 19.6395 49.5713 21.5597 49.5713 25.4V44.6C49.5713 48.4404 49.5713 50.3606 48.8239 51.8274C48.1665 53.1176 47.1175 54.1666 45.8273 54.8241C44.3604 55.5714 42.4403 55.5714 38.5999 55.5714H31.3999C27.5595 55.5714 25.6394 55.5714 24.1725 54.8241C22.8823 54.1666 21.8333 53.1176 21.1759 51.8274C20.4285 50.3606 20.4285 48.4404 20.4285 44.6V25.4ZM31.3999 17H38.5999C40.5625 17 41.8798 17.002 42.8943 17.0849C43.8787 17.1653 44.3494 17.3089 44.6599 17.4671C45.4663 17.878 46.1219 18.5336 46.5328 19.3401C46.691 19.6505 46.8346 20.1212 46.915 21.1057C46.9979 22.1201 46.9999 23.4374 46.9999 25.4V44.6C46.9999 46.5626 46.9979 47.8799 46.915 48.8944C46.8346 49.8788 46.691 50.3495 46.5328 50.66C46.1219 51.4664 45.4663 52.122 44.6599 52.5329C44.3494 52.6911 43.8787 52.8347 42.8943 52.9151C41.8798 52.998 40.5625 53 38.5999 53H31.3999C29.4373 53 28.12 52.998 27.1055 52.9151C26.1211 52.8347 25.6504 52.6911 25.3399 52.5329C24.5335 52.122 23.8779 51.4664 23.467 50.66C23.3088 50.3495 23.1652 49.8788 23.0848 48.8944C23.0019 47.8799 22.9999 46.5626 22.9999 44.6V25.4C22.9999 23.4374 23.0019 22.1201 23.0848 21.1057C23.1652 20.1212 23.3088 19.6505 23.467 19.3401C23.8779 18.5336 24.5335 17.878 25.3399 17.4671C25.6504 17.3089 26.1211 17.1653 27.1055 17.0849C28.12 17.002 29.4373 17 31.3999 17Z" fill="white"></path> </svg> 